<?xml version="1.0" encoding="UTF-8"?>
<!DOCTYPE svg PUBLIC "-//W3C//DTD SVG 1.1//EN" "http://www.w3.org/Graphics/SVG/1.1/DTD/svg11.dtd">
<svg width="239mm" height="174mm" viewBox="0 0 23900 17400" version="1.1" xmlns="http://www.w3.org/2000/svg" xmlns:xlink="http://www.w3.org/1999/xlink" stroke-width="28.222" stroke-linejoin="round" xml:space="preserve">
 <path fill="rgb(255,255,255)" stroke="none" d="M 11946,17422 L -13,17422 -13,-13 23904,-13 23904,17422 11946,17422 Z"/>
 <path fill="rgb(255,255,255)" stroke="none" d="M 10915,15139 L 2182,15139 2182,534 19648,534 19648,15139 10915,15139 Z"/>
 <path fill="none" stroke="rgb(183,183,183)" stroke-width="18" stroke-linejoin="round" d="M 19647,15138 L 2182,15138"/>
 <path fill="none" stroke="rgb(183,183,183)" stroke-width="18" stroke-linejoin="round" d="M 19647,13051 L 2182,13051"/>
 <path fill="none" stroke="rgb(183,183,183)" stroke-width="18" stroke-linejoin="round" d="M 19647,10964 L 2182,10964"/>
 <path fill="none" stroke="rgb(183,183,183)" stroke-width="18" stroke-linejoin="round" d="M 19647,8878 L 2182,8878"/>
 <path fill="none" stroke="rgb(183,183,183)" stroke-width="18" stroke-linejoin="round" d="M 19647,6792 L 2182,6792"/>
 <path fill="none" stroke="rgb(183,183,183)" stroke-width="18" stroke-linejoin="round" d="M 19647,4706 L 2182,4706"/>
 <path fill="none" stroke="rgb(183,183,183)" stroke-width="18" stroke-linejoin="round" d="M 19647,2619 L 2182,2619"/>
 <path fill="none" stroke="rgb(183,183,183)" stroke-width="18" stroke-linejoin="round" d="M 19647,533 L 2182,533"/>
 <path fill="none" stroke="rgb(139,139,139)" stroke-width="18" stroke-linejoin="round" d="M 2182,15138 L 19647,15138"/>
 <path fill="none" stroke="rgb(139,139,139)" stroke-width="18" stroke-linejoin="round" d="M 2182,15138 L 2182,533"/>
 <path fill="none" stroke="rgb(246,178,107)" stroke-width="53" stroke-linejoin="round" d="M 2182,15138 L 2205,15138 2216,15138 2228,15138 2240,15138 2251,15138 2263,15138 2275,15138 2286,15138 2298,15138 2310,15138 2321,15138 2333,15138 2345,15138 2356,15138 2368,15138 2380,15138 2391,15138 2403,15138 2415,15138 2426,15138 2438,15138 2450,15138 2461,15138 2473,15138 2484,15138 2496,15138 2508,15138 2519,15138 2531,15138 2543,15138 2554,15138 2566,15138 2578,15138 2589,15138 2601,15138 2613,15138 2624,15138 2648,13739 2659,13739 2671,13677 2683,13677 2694,13447 2706,13343 2718,13343 2729,13197 2741,13197 2752,13197 2764,12947 2776,12947 2787,12947 2799,12947 2811,12947 2822,12383 2834,12300 2846,12300 2857,12300 2869,11966 2881,11966 2892,11903 2904,11903 2916,11444 2927,11444 2939,11382 2951,11382 2962,11382 2974,11152 2986,11173 2997,11173 3009,11173 3020,11152 3032,11152 3044,10943 3055,10860 3067,10860 3090,10735 3102,10735 3114,10735 3125,10589 3137,10589 3149,10589 3160,10589 3172,10589 3184,10276 3195,10276 3207,10276 3219,10025 3230,10025 3242,10025 3254,10025 3265,9817 3277,9817 3288,9817 3300,9462 3312,9462 3323,9462 3335,9462 3347,9462 3358,9212 3370,9212 3382,9212 3393,9212 3405,9045 3417,9045 3428,9045 3440,9045 3452,9045 3463,9045 3475,9045 3487,9045 3498,8773 3510,8773 3522,8773 3545,8773 3556,8773 3568,8545 3580,8545 3591,8545 3603,8545 3615,8545 3626,8545 3638,8545 3650,8545 3661,8545 3673,8545 3685,8545 3696,8441 3708,8441 3720,8441 3731,8441 3743,8441 3755,8441 3766,8441 3778,8295 3790,8295 3801,8295 3813,8295 3824,8295 3836,8295 3848,8295 3859,8295 3871,8295 3883,8295 3894,8295 3906,8295 3918,8295 3929,8295 3941,8295 3953,8295 3964,7982 3988,7982 3999,7982 4011,7982 4023,7982 4034,7982 4046,7982 4058,7982 4069,7731 4081,7731 4092,7731 4104,7731 4116,7689 4127,7689 4139,7689 4151,7689 4162,7689 4174,7523 4186,7523 4197,7523 4209,7523 4221,7523 4232,7356 4244,7356 4256,7356 4267,7356 4279,7356 4291,7251 4302,7251 4314,7251 4326,7251 4337,7251 4349,7251 4361,7251 4372,7251 4384,7251 4395,7126 4407,7126 4419,7126 4442,7126 4454,7126 4465,7126 4477,7063 4489,7063 4500,7063 4512,7063 4524,7063 4535,7063 4547,7063 4559,7063 4570,7063 4582,7063 4594,6667 4605,6667 4617,6667 4629,6667 4640,6667 4652,6667 4663,6667 4675,6667 4687,6667 4698,6667 4710,6667 4722,6563 4733,6563 4745,6563 4757,6563 4768,6563 4780,6458 4792,6604 4803,6604 4815,6604 4827,6604 4838,6604 4850,6604 4862,6604 4885,6604 4897,6375 4908,6375 4920,6375 4931,6375 4943,6208 4955,6208 4966,6208 4978,6208 4990,6208 5001,6208 5013,6208 5025,6208 5036,6208 5048,6208 5060,6208 5071,6208 5083,6208 5095,6208 5106,6208 5118,6208 5130,6208 5141,6125 5153,6125 5165,6125 5176,6125 5188,6125 5199,6125 5211,6125 5223,6125 5234,6125 5246,6125 5258,6125 5269,6104 5281,6104 5293,6104 5304,6104 5316,6104 5339,6104 5351,6104 5363,6104 5374,6104 5386,6104 5398,6104 5409,6104 5421,6104 5433,6104 5444,6104 5456,6104 5467,6104 5479,6104 5491,6104 5502,5832 5514,5832 5526,5832 5537,5832 5549,5832 5561,5832 5572,5832 5584,5832 5596,5832 5607,5832 5619,5832 5631,5832 5642,5832 5654,6062 5666,6062 5677,6062 5689,6062 5701,6062 5712,6062 5724,6062 5735,6062 5747,6062 5759,6062 5782,6062 5794,6062 5805,6062 5817,5916 5829,5916 5840,5916 5852,5916 5864,5916 5875,5916 5887,5916 5899,5916 5910,5916 5922,5916 5934,5916 5945,5916 5957,5916 5969,5916 5980,5916 5992,5707 6003,5707 6015,5707 6027,5707 6038,5707 6050,5707 6062,5707 6073,5707 6085,5707 6097,5707 6108,5707 6120,5707 6132,5707 6143,5645 6155,5645 6167,5645 6178,5645 6190,5645 6202,5645 6225,5645 6237,5645 6248,5645 6260,5645 6272,5645 6283,5645 6295,5645 6306,5645 6318,5645 6330,5645 6341,5645 6353,5645 6365,5645 6376,5645 6388,5645 6400,5645 6411,5645 6423,5645 6435,5645 6446,5645 6458,5645 6470,5645 6481,5645 6493,5645 6505,5645 6516,5645 6528,5645 6540,5645 6551,5645 6563,5645 6574,5645 6586,5645 6598,5645 6609,5645 6621,5645 6633,5645 6644,5645 6656,5645 6679,5645 6691,5645 6703,5645 6714,5645 6726,5645 6738,5645 6749,5645 6761,5645 6773,5645 6784,5645 6796,5645 6808,5645 6819,5645 6831,5645 6842,5645 6854,5645 6866,5645 6877,5645 6889,5645 6901,5645 6912,5645 6924,5645 6936,5645 6947,5645 6959,5645 6971,5645 6982,5645 6994,6417 7006,6417 7017,6417 7029,6417 7041,6417 7052,6417 7064,6417 7076,6417 7087,6417 7099,6417 7122,6417 7134,6417 7145,5165 7157,5165 7169,5165 7180,5165 7192,5165 7204,5165 7215,5165 7227,5165 7239,5165 7250,5165 7262,5165 7274,5165 7285,5165 7297,5165 7309,5165 7320,5165 7332,4914 7344,4914 7355,4914 7367,4914 7378,4914 7390,4914 7402,4914 7413,4914 7425,4914 7437,4914 7448,4914 7460,4914 7472,4914 7483,4914 7495,4914 7507,4914 7518,5039 7530,5039 7542,5039 7553,5039 7577,5039 7588,5039 7600,5039 7612,5039 7623,5039 7635,5039 7646,5039 7658,5039 7670,5039 7681,5394 7693,5394 7705,5394 7716,5394 7728,5394 7740,5394 7751,5394 7763,5394 7775,5394 7786,5394 7798,5394 7810,5394 7821,5394 7833,5394 7845,5394 7856,5373 7868,5373 7880,5373 7891,5373 7903,5373 7914,5373 7926,5373 7938,5081 7949,5081 7961,5081 7973,5081 7984,5081 7996,5081 8019,5081 8031,5081 8043,5081 8054,5081 8066,5081 8078,5081 8089,5081 8101,5081 8113,5081 8124,5081 8136,5081 8148,5081 8159,5081 8171,5081 8183,5039 8194,5039 8206,5039 8217,5039 8229,5039 8241,5039 8252,5039 8264,5039 8276,5039 8287,5039 8299,5039 8311,5039 8322,5039 8334,5039 8346,5039 8357,5039 8369,5561 8381,5561 8392,5561 8404,5561 8416,5561 8427,6166 8439,6166 8451,6166 8474,6166 8485,6166 8497,6166 8509,6250 8520,6250 8532,6250 8544,6250 8555,6250 8567,6250 8579,6250 8590,6250 8602,6250 8614,6250 8625,6250 8637,6250 8649,6250 8660,6250 8672,6250 8684,6250 8695,5645 8707,5645 8719,5645 8730,5645 8742,5645 8753,5645 8765,5645 8777,5645 8788,5645 8800,5645 8812,5645 8823,5645 8835,5645 8847,5645 8858,5269 8870,5269 8882,5269 8893,5269 8917,5269 8928,5269 8940,5269 8952,5269 8963,5269 8975,5269 8987,5269 8998,5269 9010,5269 9021,4706 9033,4706 9045,4706 9056,4706 9068,4706 9080,4706 9091,4706 9103,4706 9115,4706 9126,4706 9138,4706 9150,4706 9161,4706 9173,4706 9185,4706 9196,4706 9208,4706 9220,4706 9231,4706 9243,4706 9255,4706 9266,4706 9278,4706 9289,4706 9301,4706 9313,4706 9324,4288 9336,4288 9359,4288 9371,4288 9383,4288 9394,4288 9406,4288 9418,4288 9429,4288 9441,4288 9453,4288 9464,4288 9476,4288 9488,4288 9499,4288 9511,4059 9523,4059 9534,4059 9546,4059 9557,4059 9569,4059 9581,4059 9592,4059 9604,4059 9616,4059 9627,4059 9639,4059 9651,4059 9662,4059 9674,4059 9686,4017 9697,4017 9709,4017 9721,4017 9732,4017 9744,4017 9756,4017 9767,4017 9779,4017 9791,4017 9814,4017 9825,4017 9837,4017 9849,4142 9860,4142 9872,4142 9884,4142 9895,4142 9907,4142 9919,4142 9930,4142 9942,4142 9954,4142 9965,4142 9977,4142 9989,4163 10000,4163 10012,4163 10024,4163 10035,4163 10047,4163 10059,4163 10070,4163 10082,4163 10094,4163 10105,4163 10117,4163 10128,4163 10140,4163 10152,4163 10163,4163 10175,4163 10187,4163 10198,4163 10210,4163 10222,4163 10233,3892 10257,3892 10268,3892 10280,3892 10292,3892 10303,3892 10315,3892 10327,3892 10338,3892 10350,3892 10362,3892 10373,3892 10385,3788 10396,3788 10408,3788 10420,3788 10431,3788 10443,3788 10455,3788 10466,3788 10478,3788 10490,3788 10501,3788 10513,3788 10525,3788 10536,3788 10548,3788 10560,3788 10571,3788 10583,3788 10595,3788 10606,3788 10618,3788 10630,4101 10641,4101 10653,4101 10664,4101 10676,4101 10688,4101 10711,4142 10723,4142 10734,4142 10746,4142 10758,4142 10769,4142 10781,4142 10793,4142 10804,4142 10816,4142 10828,4142 10839,4142 10851,4142 10863,4142 10874,4142 10886,3954 10898,3954 10909,3954 10921,3954 10932,3954 10944,3954 10956,3954 10967,3954 10979,3954 10991,3954 11002,3954 11014,3954 11026,3954 11037,3954 11049,4142 11061,4142 11072,4142 11084,4142 11096,4142 11107,4142 11119,4142 11131,4142 11154,4142 11166,4142 11177,4142 11189,4142 11200,4142 11212,4142 11224,4142 11235,4142 11247,4142 11259,4142 11270,4142 11282,4038 11294,4038 11305,4038 11317,4038 11329,4038 11340,4038 11352,4038 11364,4038 11375,4038 11387,4038 11399,4038 11410,4038 11422,4038 11434,4038 11445,4372 11457,4372 11468,4372 11480,4372 11492,4372 11503,4372 11515,4372 11527,4121 11538,4121 11550,4121 11562,4121 11573,4121 11585,4121 11608,4121 11620,4121 11632,4121 11643,4121 11655,4121 11667,4121 11678,3871 11690,3871 11702,3871 11713,3871 11725,3871 11736,3871 11748,3871 11760,3871 11771,3871 11783,3871 11795,3871 11806,3871 11818,3871 11830,3871 11841,3871 11853,3975 11865,3975 11876,3975 11888,3975 11900,3975 11911,3975 11923,3975 11935,3975 11946,3975 11957,3975 11969,3975 11980,3975 11992,4372 12004,4372 12015,4372 12027,4372 12050,4372 12062,4372 12073,4372 12085,4372 12097,4372 12108,4372 12120,4372 12132,4372 12143,4372 12155,4372 12167,4393 12178,4393 12190,4393 12202,4393 12213,4393 12225,4393 12237,4393 12248,4393 12260,4393 12272,4852 12283,4852 12295,4852 12306,4852 12318,4852 12330,4852 12341,4852 12353,5102 12365,5102 12376,5102 12388,5102 12400,5102 12411,5102 12423,5102 12435,5102 12446,5436 12458,5436 12470,5436 12481,5561 12505,5561 12516,5561 12528,5645 12540,5645 12551,5645 12563,5645 12574,5958 12586,5958 12598,15138 12609,15138 12621,15138 12633,5812 12644,5812 12656,5812 12668,6104 12679,6104 12691,6104 12703,6104 12714,6104 12726,6417 12738,6417 12749,6417 12761,6500 12773,6500 12784,6500 12796,6500 12808,6500 12819,6500 12831,6500 12842,6730 12854,6730 12866,6730 12877,6730 12889,6730 12901,7001 12912,7001 12924,7001 12947,6688 12959,6688 12971,6688 12982,6688 12994,6625 13006,6625 13017,6625 13029,6625 13041,6563 13052,6563 13064,6563 13076,6563 13087,6563 13099,6563 13110,6563 13122,6563 13134,6563 13145,6208 13157,6208 13169,6208 13180,6208 13192,6208 13204,6208 13215,6208 13227,6208 13239,6020 13250,6020 13262,6020 13274,6020 13285,6020 13297,6020 13309,6020 13320,5895 13332,5895 13344,5895 13355,5895 13367,5895 13390,5895 13402,6083 13413,6083 13425,6083 13437,6083 13448,6083 13460,6083 13472,6125 13483,6125 13495,6125 13507,6125 13518,6125 13530,6125 13542,6125 13553,6125 13565,6125 13577,6187 13588,6187 13600,6187 13612,6187 13623,6187 13635,6479 13646,6479 13658,6479 13670,6479 13681,6479 13693,6479 13705,6479 13716,6479 13728,6229 13740,6229 13751,6229 13763,6229 13775,6229 13786,6229 13798,6229 13810,6229 13821,6229 13845,6229 13856,6229 13868,6229 13880,6229 13891,6813 13903,6813 13915,6813 13926,6813 13938,6813 13949,6813 13961,6813 13973,6813 13984,6813 13996,6813 14008,6813 14019,6855 14031,6855 14043,6855 14054,6855 14066,6855 14078,6855 14089,6855 14101,6855 14113,6855 14124,6855 14136,7272 14148,7272 14159,7272 14171,7272 14183,7272 14194,7272 14206,6730 14217,6730 14229,6730 14241,6730 14252,6730 14264,6730 14287,6730 14299,6730 14311,6730 14322,6730 14334,6730 14346,6730 14357,6730 14369,6730 14381,6458 14392,6458 14404,6458 14416,6458 14427,6458 14439,6458 14451,6458 14462,6458 14474,6458 14485,6458 14497,6458 14509,6458 14520,6458 14532,6458 14544,6458 14555,6458 14567,6458 14579,6730 14590,6730 14602,6730 14614,6730 14625,6730 14637,6730 14649,6730 14660,6730 14672,6730 14684,6730 14695,6980 14707,6980 14719,6980 14742,6980 14753,6980 14765,6980 14777,6980 14788,6980 14800,6980 14812,6980 14823,6980 14835,6980 14847,6980 14858,6980 14870,6980 14882,6980 14893,6980 14905,6980 14917,6980 14928,6980 14940,6980 14952,6980 14963,7168 14975,7168 14987,7168 14998,7168 15010,7168 15021,7168 15033,7543 15045,7543 15056,7543 15068,7543 15080,7543 15091,7710 15103,7710 15115,7710 15126,7710 15138,7773 15150,7773 15161,7773 15185,7773 15196,7773 15208,7773 15220,7773 15231,7773 15243,7815 15255,7815 15266,7815 15278,7815 15289,7815 15301,7815 15313,7815 15324,7815 15336,7815 15348,7856 15359,7856 15371,7856 15383,7856 15394,7856 15406,7856 15418,7856 15429,7856 15441,8002 15453,8002 15464,8002 15476,8002 15488,8002 15499,8002 15511,8002 15523,8002 15534,8002 15546,8002 15557,8002 15569,8002 15581,8002 15592,8002 15604,8002 15616,15138 15639,15138 15651,15138 15662,15138 15674,15138 15686,15138 15697,15138 15709,15138 15721,15138 15732,15138 15744,15138 15756,15138 15767,15138 15779,15138 15791,15138 15802,15138 15814,15138 15826,15138 15837,15138 15849,15138 15860,15138 15872,15138 15884,15138 15895,15138 15907,15138 15919,15138 15930,15138 15942,15138 15954,15138 15965,15138 15977,15138 15989,15138 16000,15138 16012,15138 16024,15138 16035,15138 16047,15138 16059,15138 16082,15138 16094,15138 16105,15138 16117,15138 16128,15138 16140,15138 16152,15138 16163,15138 16175,15138 16187,15138 16198,15138 16210,15138 16222,15138 16233,15138 16245,15138 16257,15138 16268,15138 16280,15138 16292,15138 16303,15138 16315,15138 16327,15138 16338,15138 16350,15138 16362,15138 16373,15138 16385,15138 16396,15138 16408,15138 16420,15138 16431,15138 16443,15138 16455,15138 16466,15138 16478,15138 16490,15138 16501,15138 16525,15138 16536,15138 16548,15138 16560,15138 16571,15138 16583,15138 16595,15138 16606,15138 16618,15138 16630,15138 16641,15138 16653,15138 16664,15138 16676,15138 16688,15138 16699,15138 16711,15138 16723,15138 16734,15138 16746,15138 16758,15138 16769,15138 16781,15138 16793,15138 16804,15138 16816,15138 16828,15138 16839,15138 16851,15138 16863,15138 16874,15138 16886,15138 16898,15138 16909,15138 16921,15138 16932,15138 16944,15138 16956,15138 16979,15138 16991,15138 17002,15138 17014,15138 17026,15138 17037,15138 17049,15138 17061,15138 17072,15138 17084,15138 17096,15138 17107,15138 17119,15138 17131,15138 17142,15138 17154,15138 17166,15138 17177,15138 17189,15138 17200,15138 17212,15138 17224,15138 17235,15138 17247,15138 17259,15138 17270,15138 17282,15138 17294,15138 17305,15138 17317,15138 17329,15138 17340,15138 17352,15138 17364,15138 17375,15138 17387,15138 17399,15138 17422,15138 17434,15138 17445,15138 17457,15138 17468,15138 17480,15138 17492,15138 17503,15138 17515,15138 17527,15138 17538,15138 17550,15138 17562,15138 17573,15138 17585,15138 17597,15138 17608,15138 17620,15138 17632,15138 17643,15138 17655,15138 17667,15138 17678,15138 17690,15138 17702,15138 17713,15138 17725,15138 17737,15138 17748,15138 17760,15138 17771,15138 17783,15138 17795,15138 17806,15138 17818,15138 17830,15138 17841,15138 17853,15138 17876,15138 17888,15138 17900,15138 17911,15138 17923,15138 17935,15138 17946,15138 17958,15138 17970,15138 17981,15138 17993,15138 18005,15138 18016,15138 18028,15138 18039,15138 18051,15138 18063,15138 18074,15138 18086,15138 18098,15138 18109,15138 18121,15138 18133,15138 18144,15138 18156,15138 18168,15138 18179,15138 18191,15138 18203,15138 18214,15138 18226,15138 18238,15138 18249,15138 18261,15138 18273,15138 18284,15138 18296,15138 18319,15138 18331,15138 18342,15138 18354,15138 18366,15138 18377,15138 18389,15138 18401,15138 18412,15138 18424,15138 18436,15138 18447,15138 18459,15138 18471,15138 18482,15138 18494,15138 18506,15138 18517,15138 18529,15138 18541,15138 18552,15138 18564,15138 18575,15138 18587,15138 18599,15138 18610,15138 18622,15138 18634,15138 18645,15138 18657,15138 18669,15138 18680,15138 18692,15138 18704,15138 18715,15138 18727,15138 18739,15138 18750,15138 18774,15138 18785,15138 18797,15138 18809,15138 18820,15138 18832,15138 18843,15138 18855,15138 18867,15138 18878,15138 18890,15138 18902,15138 18913,15138 18925,15138 18937,15138 18948,15138 18960,15138 18972,15138 18983,15138 18995,15138 19007,15138 19018,15138 19030,15138 19042,15138 19053,15138 19065,15138 19077,15138 19088,15138 19100,15138 19111,15138 19123,15138 19135,15138 19146,15138 19158,15138 19170,15138 19181,15138 19193,15138 19216,15138 19228,15138 19240,15138 19251,15138 19263,15138 19275,15138 19286,15138 19298,15138 19310,15138 19321,15138 19333,15138 19345,15138 19356,15138 19368,15138 19379,15138 19391,15138 19403,15138 19414,15138 19426,15138 19438,15138 19449,15138 19461,15138 19473,15138 19484,15138 19496,15138 19508,15138 19519,15138 19531,15138 19543,15138 19554,15138 19566,15138 19578,15138 19589,15138 19601,15138 19613,15138 19624,15138 19636,15138 19647,15138"/>
 <path fill="none" stroke="rgb(109,158,235)" stroke-width="53" stroke-linejoin="round" d="M 2182,15138 L 2205,15138 2216,15138 2228,15138 2240,15138 2251,15138 2263,15138 2275,15138 2286,15138 2298,15138 2310,15138 2321,15138 2333,15138 2345,15138 2356,15138 2368,15138 2380,15138 2391,15138 2403,15138 2415,15138 2426,15138 2438,15138 2450,15138 2461,15138 2473,15138 2484,15138 2496,15138 2508,15138 2519,15138 2531,15138 2543,15138 2554,15138 2566,15138 2578,15138 2589,15138 2601,15138 2613,15138 2624,15138 2648,13677 2659,13677 2671,13531 2683,13531 2694,13322 2706,13260 2718,13260 2729,13114 2741,13114 2752,13114 2764,12884 2776,12884 2787,12884 2799,12884 2811,12884 2822,12425 2834,12446 2846,12446 2857,12446 2869,12175 2881,12175 2892,12091 2904,12091 2916,11507 2927,11507 2939,11465 2951,11465 2962,11465 2974,11090 2986,11027 2997,11027 3009,11027 3020,10943 3032,10943 3044,10756 3055,10672 3067,10672 3090,10505 3102,10505 3114,10505 3125,10318 3137,10318 3149,10318 3160,10318 3172,10318 3184,9921 3195,9921 3207,9921 3219,9483 3230,9483 3242,9483 3254,9483 3265,9212 3277,9212 3288,9212 3300,8920 3312,8920 3323,8920 3335,8920 3347,8920 3358,8815 3370,8815 3382,8815 3393,8815 3405,8461 3417,8461 3428,8461 3440,8461 3452,8461 3463,8461 3475,8461 3487,8461 3498,8065 3510,8065 3522,8065 3545,8065 3556,8065 3568,7502 3580,7502 3591,7502 3603,7502 3615,7502 3626,7502 3638,7502 3650,7502 3661,7502 3673,7502 3685,7502 3696,7543 3708,7543 3720,7543 3731,7543 3743,7543 3755,7543 3766,7543 3778,7376 3790,7376 3801,7376 3813,7376 3824,7376 3836,7376 3848,7376 3859,7376 3871,7376 3883,7376 3894,7376 3906,7376 3918,7376 3929,7376 3941,7376 3953,7376 3964,6542 3988,6542 3999,6542 4011,6584 4023,6584 4034,6584 4046,6584 4058,6584 4069,6291 4081,6291 4092,6291 4104,6291 4116,6312 4127,6312 4139,6312 4151,6312 4162,6312 4174,6062 4186,6062 4197,6062 4209,6062 4221,6062 4232,5832 4244,5832 4256,5832 4267,5832 4279,5832 4291,5791 4302,5791 4314,5791 4326,5791 4337,5791 4349,5791 4361,5791 4372,5791 4384,5791 4395,5436 4407,5436 4419,5436 4442,5436 4454,5436 4465,5436 4477,5352 4489,5352 4500,5352 4512,5352 4524,5352 4535,5352 4547,5352 4559,5352 4570,5352 4582,5352 4594,4977 4605,4977 4617,4977 4629,4977 4640,4977 4652,4977 4663,4977 4675,4977 4687,4977 4698,4977 4710,4977 4722,4914 4733,4914 4745,4914 4757,4914 4768,4914 4780,4768 4792,4831 4803,4831 4815,4831 4827,4831 4838,4831 4850,4831 4862,4831 4885,4831 4897,4914 4908,4914 4920,4914 4931,4914 4943,4747 4955,4747 4966,4747 4978,4747 4990,4747 5001,4747 5013,4747 5025,4747 5036,4747 5048,4747 5060,4747 5071,4747 5083,4747 5095,4747 5106,4747 5118,4747 5130,4747 5141,4434 5153,4434 5165,4434 5176,4434 5188,4434 5199,4434 5211,4434 5223,4434 5234,4434 5246,4434 5258,4434 5269,4539 5281,4539 5293,4539 5304,4539 5316,4539 5339,4539 5351,4539 5363,4539 5374,4539 5386,4539 5398,4539 5409,4539 5421,4539 5433,4539 5444,4539 5456,4539 5467,4539 5479,4539 5491,4539 5502,4163 5514,4163 5526,4163 5537,4163 5549,4163 5561,4163 5572,4163 5584,4163 5596,4163 5607,4163 5619,4163 5631,4163 5642,4163 5654,4393 5666,4393 5677,4393 5689,4393 5701,4393 5712,4393 5724,4393 5735,4393 5747,4393 5759,4393 5782,4393 5794,4393 5805,4393 5817,4393 5829,4393 5840,4393 5852,4393 5864,4393 5875,4393 5887,4393 5899,4393 5910,4393 5922,4393 5934,4393 5945,4393 5957,4393 5969,4393 5980,4393 5992,4184 6003,4184 6015,4184 6027,4184 6038,4184 6050,4184 6062,4184 6073,4184 6085,4184 6097,4184 6108,4184 6120,4184 6132,4184 6143,4059 6155,4059 6167,4059 6178,4059 6190,4059 6202,4059 6225,4059 6237,4059 6248,4059 6260,4059 6272,4059 6283,4059 6295,4059 6306,4059 6318,4059 6330,4059 6341,4059 6353,4059 6365,4059 6376,4059 6388,4059 6400,4059 6411,4059 6423,4059 6435,4059 6446,4059 6458,4059 6470,4059 6481,4059 6493,4059 6505,4059 6516,4059 6528,4059 6540,4059 6551,4059 6563,4059 6574,4059 6586,4059 6598,4059 6609,4059 6621,4059 6633,4059 6644,4059 6656,4059 6679,4059 6691,4059 6703,4059 6714,4059 6726,4059 6738,4059 6749,4059 6761,4059 6773,4059 6784,4059 6796,4059 6808,4059 6819,4059 6831,4059 6842,4059 6854,4059 6866,4059 6877,4059 6889,4059 6901,4059 6912,4059 6924,4059 6936,4059 6947,4059 6959,4059 6971,4059 6982,4059 6994,4288 7006,4288 7017,4288 7029,4288 7041,4288 7052,4288 7064,4288 7076,4288 7087,4288 7099,4288 7122,4288 7134,4288 7145,3913 7157,3913 7169,3913 7180,3913 7192,3913 7204,3913 7215,3913 7227,3913 7239,3913 7250,3913 7262,3913 7274,3913 7285,3913 7297,3913 7309,3913 7320,3913 7332,3767 7344,3767 7355,3767 7367,3767 7378,3767 7390,3767 7402,3767 7413,3767 7425,3767 7437,3767 7448,3767 7460,3767 7472,3767 7483,3767 7495,3767 7507,3767 7518,3704 7530,3704 7542,3704 7553,3704 7577,3704 7588,3704 7600,3704 7612,3704 7623,3704 7635,3704 7646,3704 7658,3704 7670,3704 7681,3662 7693,3662 7705,3662 7716,3662 7728,3662 7740,3662 7751,3662 7763,3662 7775,3662 7786,3662 7798,3662 7810,3662 7821,3662 7833,3662 7845,3662 7856,3704 7868,3704 7880,3704 7891,3704 7903,3704 7914,3704 7926,3704 7938,3600 7949,3600 7961,3600 7973,3600 7984,3600 7996,3600 8019,3600 8031,3600 8043,3600 8054,3600 8066,3600 8078,3600 8089,3600 8101,3600 8113,3600 8124,3600 8136,3600 8148,3600 8159,3600 8171,3600 8183,3433 8194,3433 8206,3433 8217,3433 8229,3433 8241,3433 8252,3433 8264,3433 8276,3433 8287,3433 8299,3433 8311,3433 8322,3433 8334,3433 8346,3433 8357,3433 8369,3704 8381,3704 8392,3704 8404,3704 8416,3704 8427,3454 8439,3454 8451,3454 8474,3454 8485,3454 8497,3454 8509,3036 8520,3036 8532,3036 8544,3036 8555,3036 8567,3036 8579,3036 8590,3036 8602,3036 8614,3036 8625,3036 8637,3036 8649,3036 8660,3036 8672,3036 8684,3036 8695,2995 8707,2995 8719,2995 8730,2995 8742,2995 8753,2995 8765,2995 8777,2995 8788,2995 8800,2995 8812,2995 8823,2995 8835,2995 8847,2995 8858,2953 8870,2953 8882,2953 8893,2953 8917,2953 8928,2953 8940,2953 8952,2953 8963,2953 8975,2953 8987,2953 8998,2953 9010,2953 9021,2974 9033,2974 9045,2974 9056,2974 9068,2974 9080,2974 9091,2974 9103,2974 9115,2974 9126,2974 9138,2974 9150,2974 9161,2974 9173,2974 9185,2974 9196,2974 9208,2974 9220,2974 9231,2974 9243,2974 9255,2974 9266,2974 9278,2974 9289,2974 9301,2974 9313,2974 9324,2995 9336,2995 9359,2995 9371,2995 9383,2995 9394,2995 9406,2995 9418,2995 9429,2995 9441,2995 9453,2995 9464,2995 9476,2995 9488,2995 9499,2995 9511,3016 9523,3016 9534,3016 9546,3016 9557,3016 9569,3016 9581,3016 9592,3016 9604,3016 9616,3016 9627,3016 9639,3016 9651,3016 9662,3016 9674,3016 9686,2786 9697,2786 9709,2786 9721,2786 9732,2786 9744,2786 9756,2786 9767,2786 9779,2786 9791,2786 9814,2786 9825,2786 9837,2786 9849,2953 9860,2953 9872,2953 9884,2953 9895,2953 9907,2953 9919,2953 9930,2953 9942,2953 9954,2953 9965,2953 9977,2953 9989,2953 10000,2953 10012,2953 10024,2953 10035,2953 10047,2953 10059,2953 10070,2953 10082,2953 10094,2953 10105,2953 10117,2953 10128,2953 10140,2953 10152,2953 10163,2953 10175,2953 10187,2953 10198,2953 10210,2953 10222,2953 10233,2807 10257,2807 10268,2807 10280,2807 10292,2807 10303,2807 10315,2807 10327,2807 10338,2807 10350,2807 10362,2807 10373,2807 10385,2473 10396,2473 10408,2473 10420,2473 10431,2473 10443,2473 10455,2473 10466,2473 10478,2473 10490,2473 10501,2473 10513,2473 10525,2473 10536,2473 10548,2473 10560,2473 10571,2473 10583,2473 10595,2473 10606,2473 10618,2473 10630,2327 10641,2327 10653,2327 10664,2327 10676,2327 10688,2327 10711,2473 10723,2473 10734,2473 10746,2473 10758,2473 10769,2473 10781,2473 10793,2473 10804,2473 10816,2473 10828,2473 10839,2473 10851,2473 10863,2473 10874,2473 10886,2431 10898,2431 10909,2431 10921,2431 10932,2431 10944,2431 10956,2431 10967,2431 10979,2431 10991,2431 11002,2431 11014,2431 11026,2431 11037,2431 11049,2640 11061,2640 11072,2640 11084,2640 11096,2640 11107,2640 11119,2640 11131,2640 11154,2640 11166,2640 11177,2640 11189,2640 11200,2640 11212,2640 11224,2640 11235,2640 11247,2640 11259,2640 11270,2640 11282,3141 11294,3141 11305,3141 11317,3141 11329,3141 11340,3141 11352,3141 11364,3141 11375,3141 11387,3141 11399,3141 11410,3141 11422,3141 11434,3141 11445,3266 11457,3266 11468,3266 11480,3266 11492,3266 11503,3266 11515,3266 11527,3203 11538,3203 11550,3203 11562,3203 11573,3203 11585,3203 11608,3203 11620,3203 11632,3203 11643,3203 11655,3203 11667,3203 11678,3412 11690,3412 11702,3412 11713,3412 11725,3412 11736,3412 11748,3412 11760,3412 11771,3412 11783,3412 11795,3412 11806,3412 11818,3412 11830,3412 11841,3412 11853,3370 11865,3370 11876,3370 11888,3370 11900,3370 11911,3370 11923,3370 11935,3370 11946,3370 11957,3370 11969,3370 11980,3370 11992,4038 12004,4038 12015,4038 12027,4038 12050,4038 12062,4038 12073,4038 12085,4038 12097,4038 12108,4038 12120,4038 12132,4038 12143,4038 12155,4038 12167,4267 12178,4267 12190,4267 12202,4267 12213,4267 12225,4267 12237,4267 12248,4267 12260,4267 12272,4727 12283,4727 12295,4727 12306,4727 12318,4727 12330,4727 12341,4727 12353,15138 12365,15138 12376,15138 12388,15138 12400,15138 12411,15138 12423,15138 12435,15138 12446,15138 12458,15138 12470,15138 12481,15138 12505,15138 12516,15138 12528,15138 12540,15138 12551,15138 12563,15138 12574,15138 12586,15138 12598,15138 12609,15138 12621,15138 12633,15138 12644,15138 12656,15138 12668,15138 12679,15138 12691,15138 12703,15138 12714,15138 12726,15138 12738,15138 12749,15138 12761,15138 12773,15138 12784,15138 12796,15138 12808,15138 12819,15138 12831,15138 12842,15138 12854,15138 12866,15138 12877,15138 12889,15138 12901,15138 12912,15138 12924,15138 12947,15138 12959,15138 12971,15138 12982,15138 12994,15138 13006,15138 13017,15138 13029,15138 13041,15138 13052,15138 13064,15138 13076,15138 13087,15138 13099,15138 13110,15138 13122,15138 13134,15138 13145,15138 13157,15138 13169,15138 13180,15138 13192,15138 13204,15138 13215,15138 13227,15138 13239,15138 13250,15138 13262,15138 13274,15138 13285,15138 13297,15138 13309,15138 13320,15138 13332,15138 13344,15138 13355,15138 13367,15138 13390,15138 13402,15138 13413,15138 13425,15138 13437,15138 13448,15138 13460,15138 13472,15138 13483,15138 13495,15138 13507,15138 13518,15138 13530,15138 13542,15138 13553,15138 13565,15138 13577,15138 13588,15138 13600,15138 13612,15138 13623,15138 13635,15138 13646,15138 13658,15138 13670,15138 13681,15138 13693,15138 13705,15138 13716,15138 13728,15138 13740,15138 13751,15138 13763,15138 13775,15138 13786,15138 13798,15138 13810,15138 13821,15138 13845,15138 13856,15138 13868,15138 13880,15138 13891,15138 13903,15138 13915,15138 13926,15138 13938,15138 13949,15138 13961,15138 13973,15138 13984,15138 13996,15138 14008,15138 14019,15138 14031,15138 14043,15138 14054,15138 14066,15138 14078,15138 14089,15138 14101,15138 14113,15138 14124,15138 14136,15138 14148,15138 14159,15138 14171,15138 14183,15138 14194,15138 14206,15138 14217,15138 14229,15138 14241,15138 14252,15138 14264,15138 14287,15138 14299,15138 14311,15138 14322,15138 14334,15138 14346,15138 14357,15138 14369,15138 14381,15138 14392,15138 14404,15138 14416,15138 14427,15138 14439,15138 14451,15138 14462,15138 14474,15138 14485,15138 14497,15138 14509,15138 14520,15138 14532,15138 14544,15138 14555,15138 14567,15138 14579,15138 14590,15138 14602,15138 14614,15138 14625,15138 14637,15138 14649,15138 14660,15138 14672,15138 14684,15138 14695,15138 14707,15138 14719,15138 14742,15138 14753,15138 14765,15138 14777,15138 14788,15138 14800,15138 14812,15138 14823,15138 14835,15138 14847,15138 14858,15138 14870,15138 14882,15138 14893,15138 14905,15138 14917,15138 14928,15138 14940,15138 14952,15138 14963,15138 14975,15138 14987,15138 14998,15138 15010,15138 15021,15138 15033,15138 15045,15138 15056,15138 15068,15138 15080,15138 15091,15138 15103,15138 15115,15138 15126,15138 15138,15138 15150,15138 15161,15138 15185,15138 15196,15138 15208,15138 15220,15138 15231,15138 15243,15138 15255,15138 15266,15138 15278,15138 15289,15138 15301,15138 15313,15138 15324,15138 15336,15138 15348,15138 15359,15138 15371,15138 15383,15138 15394,15138 15406,15138 15418,15138 15429,15138 15441,15138 15453,15138 15464,15138 15476,15138 15488,15138 15499,15138 15511,15138 15523,15138 15534,15138 15546,15138 15557,15138 15569,15138 15581,15138 15592,15138 15604,15138 15616,15138 15639,15138 15651,15138 15662,15138 15674,15138 15686,15138 15697,15138 15709,15138 15721,15138 15732,15138 15744,15138 15756,15138 15767,15138 15779,15138 15791,15138 15802,15138 15814,15138 15826,15138 15837,15138 15849,15138 15860,15138 15872,15138 15884,15138 15895,15138 15907,15138 15919,15138 15930,15138 15942,15138 15954,15138 15965,15138 15977,15138 15989,15138 16000,15138 16012,15138 16024,15138 16035,15138 16047,15138 16059,15138 16082,15138 16094,15138 16105,15138 16117,15138 16128,15138 16140,15138 16152,15138 16163,15138 16175,15138 16187,15138 16198,15138 16210,15138 16222,15138 16233,15138 16245,15138 16257,15138 16268,15138 16280,15138 16292,15138 16303,15138 16315,15138 16327,15138 16338,15138 16350,15138 16362,15138 16373,15138 16385,15138 16396,15138 16408,15138 16420,15138 16431,15138 16443,15138 16455,15138 16466,15138 16478,15138 16490,15138 16501,15138 16525,15138 16536,15138 16548,15138 16560,15138 16571,15138 16583,15138 16595,15138 16606,15138 16618,15138 16630,15138 16641,15138 16653,15138 16664,15138 16676,15138 16688,15138 16699,15138 16711,15138 16723,15138 16734,15138 16746,15138 16758,15138 16769,15138 16781,15138 16793,15138 16804,15138 16816,15138 16828,15138 16839,15138 16851,15138 16863,15138 16874,15138 16886,15138 16898,15138 16909,15138 16921,15138 16932,15138 16944,15138 16956,15138 16979,15138 16991,15138 17002,15138 17014,15138 17026,15138 17037,15138 17049,15138 17061,15138 17072,15138 17084,15138 17096,15138 17107,15138 17119,15138 17131,15138 17142,15138 17154,15138 17166,15138 17177,15138 17189,15138 17200,15138 17212,15138 17224,15138 17235,15138 17247,15138 17259,15138 17270,15138 17282,15138 17294,15138 17305,15138 17317,15138 17329,15138 17340,15138 17352,15138 17364,15138 17375,15138 17387,15138 17399,15138 17422,15138 17434,15138 17445,15138 17457,15138 17468,15138 17480,15138 17492,15138 17503,15138 17515,15138 17527,15138 17538,15138 17550,15138 17562,15138 17573,15138 17585,15138 17597,15138 17608,15138 17620,15138 17632,15138 17643,15138 17655,15138 17667,15138 17678,15138 17690,15138 17702,15138 17713,15138 17725,15138 17737,15138 17748,15138 17760,15138 17771,15138 17783,15138 17795,15138 17806,15138 17818,15138 17830,15138 17841,15138 17853,15138 17876,15138 17888,15138 17900,15138 17911,15138 17923,15138 17935,15138 17946,15138 17958,15138 17970,15138 17981,15138 17993,15138 18005,15138 18016,15138 18028,15138 18039,15138 18051,15138 18063,15138 18074,15138 18086,15138 18098,15138 18109,15138 18121,15138 18133,15138 18144,15138 18156,15138 18168,15138 18179,15138 18191,15138 18203,15138 18214,15138 18226,15138 18238,15138 18249,15138 18261,15138 18273,15138 18284,15138 18296,15138 18319,15138 18331,15138 18342,15138 18354,15138 18366,15138 18377,15138 18389,15138 18401,15138 18412,15138 18424,15138 18436,15138 18447,15138 18459,15138 18471,15138 18482,15138 18494,15138 18506,15138 18517,15138 18529,15138 18541,15138 18552,15138 18564,15138 18575,15138 18587,15138 18599,15138 18610,15138 18622,15138 18634,15138 18645,15138 18657,15138 18669,15138 18680,15138 18692,15138 18704,15138 18715,15138 18727,15138 18739,15138 18750,15138 18774,15138 18785,15138 18797,15138 18809,15138 18820,15138 18832,15138 18843,15138 18855,15138 18867,15138 18878,15138 18890,15138 18902,15138 18913,15138 18925,15138 18937,15138 18948,15138 18960,15138 18972,15138 18983,15138 18995,15138 19007,15138 19018,15138 19030,15138 19042,15138 19053,15138 19065,15138 19077,15138 19088,15138 19100,15138 19111,15138 19123,15138 19135,15138 19146,15138 19158,15138 19170,15138 19181,15138 19193,15138 19216,15138 19228,15138 19240,15138 19251,15138 19263,15138 19275,15138 19286,15138 19298,15138 19310,15138 19321,15138 19333,15138 19345,15138 19356,15138 19368,15138 19379,15138 19391,15138 19403,15138 19414,15138 19426,15138 19438,15138 19449,15138 19461,15138 19473,15138 19484,15138 19496,15138 19508,15138 19519,15138 19531,15138 19543,15138 19554,15138 19566,15138 19578,15138 19589,15138 19601,15138 19613,15138 19624,15138 19636,15138 19647,15138"/>
 <path fill="none" stroke="rgb(142,124,195)" stroke-width="53" stroke-linejoin="round" d="M 2182,15138 L 2205,15138 2216,15138 2228,15138 2240,15138 2251,15138 2263,15138 2275,15138 2286,15138 2298,15138 2310,15138 2321,15138 2333,15138 2345,15138 2356,15138 2368,15138 2380,15138 2391,15138 2403,15138 2415,15138 2426,15138 2438,15138 2450,15138 2461,15138 2473,15138 2484,15138 2496,15138 2508,15138 2519,15138 2531,15138 2543,15138 2554,15138 2566,15138 2578,15138 2589,15138 2601,15138 2613,15138 2624,15138 2648,15138 2659,15138 2671,15138 2683,15138 2694,15138 2706,15138 2718,15138 2729,15138 2741,15138 2752,15138 2764,15138 2776,15138 2787,15138 2799,15138 2811,15138 2822,15138 2834,15138 2846,15138 2857,15138 2869,15138 2881,15138 2892,15138 2904,15138 2916,15138 2927,15138 2939,15138 2951,15138 2962,15138 2974,15138 2986,15138 2997,15138 3009,15138 3020,15138 3032,15138 3044,15138 3055,15138 3067,15138 3090,15138 3102,15138 3114,15138 3125,15138 3137,15138 3149,15138 3160,15138 3172,15138 3184,15138 3195,15138 3207,15138 3219,15138 3230,15138 3242,15138 3254,15138 3265,15138 3277,15138 3288,15138 3300,15138 3312,15138 3323,15138 3335,15138 3347,15138 3358,15138 3370,15138 3382,15138 3393,15138 3405,15138 3417,15138 3428,15138 3440,15138 3452,15138 3463,15138 3475,15138 3487,15138 3498,15138 3510,15138 3522,15138 3545,15138 3556,15138 3568,15138 3580,15138 3591,15138 3603,15138 3615,15138 3626,15138 3638,15138 3650,15138 3661,15138 3673,15138 3685,15138 3696,15138 3708,15138 3720,15138 3731,15138 3743,15138 3755,15138 3766,15138 3778,15138 3790,15138 3801,15138 3813,15138 3824,15138 3836,15138 3848,15138 3859,15138 3871,15138 3883,15138 3894,15138 3906,15138 3918,15138 3929,15138 3941,15138 3953,15138 3964,15138 3988,15138 3999,15138 4011,15138 4023,15138 4034,15138 4046,15138 4058,15138 4069,15138 4081,15138 4092,15138 4104,15138 4116,15138 4127,15138 4139,15138 4151,15138 4162,15138 4174,15138 4186,15138 4197,15138 4209,15138 4221,15138 4232,15138 4244,15138 4256,15138 4267,15138 4279,15138 4291,15138 4302,15138 4314,15138 4326,15138 4337,15138 4349,15138 4361,15138 4372,15138 4384,15138 4395,15138 4407,15138 4419,15138 4442,15138 4454,15138 4465,15138 4477,15138 4489,15138 4500,15138 4512,15138 4524,15138 4535,15138 4547,15138 4559,15138 4570,15138 4582,15138 4594,15138 4605,15138 4617,15138 4629,15138 4640,15138 4652,15138 4663,15138 4675,15138 4687,15138 4698,15138 4710,15138 4722,15138 4733,15138 4745,15138 4757,15138 4768,15138 4780,15138 4792,15138 4803,15138 4815,15138 4827,15138 4838,15138 4850,15138 4862,15138 4885,15138 4897,15138 4908,15138 4920,15138 4931,15138 4943,15138 4955,15138 4966,15138 4978,15138 4990,15138 5001,15138 5013,15138 5025,15138 5036,15138 5048,15138 5060,15138 5071,15138 5083,15138 5095,15138 5106,15138 5118,15138 5130,15138 5141,15138 5153,15138 5165,15138 5176,2953 5188,2953 5199,2953 5211,2953 5223,2953 5234,2953 5246,2953 5258,15138 5269,15138 5281,15138 5293,15138 5304,15138 5316,15138 5339,15138 5351,15138 5363,15138 5374,15138 5386,2974 5398,2974 5409,2974 5421,2974 5433,15138 5444,15138 5456,15138 5467,15138 5479,15138 5491,15138 5502,4080 5514,4080 5526,4080 5537,15138 5549,15138 5561,15138 5572,15138 5584,15138 5596,15138 5607,15138 5619,15138 5631,15138 5642,15138 5654,15138 5666,15138 5677,15138 5689,15138 5701,15138 5712,15138 5724,15138 5735,15138 5747,3454 5759,3454 5782,3454 5794,3454 5805,15138 5817,15138 5829,15138 5840,15138 5852,15138 5864,15138 5875,15138 5887,15138 5899,3370 5910,3370 5922,3370 5934,3370 5945,3370 5957,3370 5969,3370 5980,3370 5992,3370 6003,3245 6015,3245 6027,3245 6038,3245 6050,3162 6062,3162 6073,3162 6085,3162 6097,3224 6108,3224 6120,3224 6132,3224 6143,3182 6155,3182 6167,3182 6178,3182 6190,3182 6202,3182 6225,2953 6237,2953 6248,2953 6260,2953 6272,2953 6283,2953 6295,2953 6306,3266 6318,3266 6330,3266 6341,3266 6353,3266 6365,3266 6376,3036 6388,3036 6400,3036 6411,3036 6423,3036 6435,3036 6446,3036 6458,3036 6470,3036 6481,3579 6493,3579 6505,3579 6516,3579 6528,3579 6540,3704 6551,3704 6563,3704 6574,3704 6586,3704 6598,3704 6609,3704 6621,3704 6633,3621 6644,3621 6656,3621 6679,3621 6691,3621 6703,3621 6714,3621 6726,3621 6738,3621 6749,3621 6761,3621 6773,3621 6784,3621 6796,3537 6808,3537 6819,3537 6831,3537 6842,3537 6854,3537 6866,3537 6877,3537 6889,3537 6901,3537 6912,3537 6924,3370 6936,3370 6947,3370 6959,3370 6971,3370 6982,3370 6994,3370 7006,3370 7017,3370 7029,3370 7041,3558 7052,3558 7064,3558 7076,3558 7087,3558 7099,3558 7110,2974 7122,2974 7134,2974 7145,2974 7157,2974 7169,2974 7180,2974 7192,2974 7204,2974 7215,2974 7227,2974 7239,2974 7250,2974 7262,2974 7274,2974 7285,2577 7297,2577 7309,2577 7320,2577 7332,2577 7344,2577 7355,2577 7367,2577 7378,2577 7390,2577 7402,2577 7413,2577 7425,2577 7437,2577 7448,2577 7460,2577 7472,2577 7483,2494 7495,2494 7507,2494 7518,2494 7530,2494 7542,2494 7553,2494 7577,2494 7588,2494 7600,2431 7612,2431 7623,2431 7635,2431 7646,2431 7658,2431 7670,2431 7681,2431 7693,2431 7705,2431 7716,2431 7728,2431 7740,2431 7751,2431 7763,2431 7775,2431 7786,2431 7798,2431 7810,2431 7821,2431 7833,2431 7845,2431 7856,2431 7868,2744 7880,2744 7891,2744 7903,2744 7914,2744 7926,2744 7938,2536 7949,2536 7961,2536 7973,2536 7984,2536 7996,2640 8019,2640 8031,2640 8043,2807 8054,2807 8066,2807 8078,2807 8089,2807 8101,2807 8113,2807 8124,2807 8136,2807 8148,2807 8159,2807 8171,2807 8183,2807 8194,2807 8206,2807 8217,2807 8229,2807 8241,2807 8252,2723 8264,2723 8276,2723 8287,2723 8299,2723 8311,2723 8322,2723 8334,2723 8346,2536 8357,2536 8369,2536 8381,2536 8392,2536 8404,2536 8416,2536 8427,2536 8439,2536 8451,2536 8474,2536 8485,2536 8497,2536 8509,2536 8520,2682 8532,2682 8544,2682 8555,2682 8567,2682 8579,2682 8590,2682 8602,2682 8614,2682 8625,2682 8637,2682 8649,2682 8660,2682 8672,2619 8684,2619 8695,2619 8707,2619 8719,2619 8730,2619 8742,2619 8753,2619 8765,3141 8777,3141 8788,3141 8800,3141 8812,3141 8823,3141 8835,3141 8847,3141 8858,3141 8870,3287 8882,3287 8893,3287 8917,3287 8928,3287 8940,3287 8952,3287 8963,3287 8975,3287 8987,3287 8998,3287 9010,3287 9021,3287 9033,3287 9045,3287 9056,3287 9068,2953 9080,2953 9091,2953 9103,2953 9115,2953 9126,2953 9138,2953 9150,2953 9161,2953 9173,2703 9185,2703 9196,2703 9208,2703 9220,2703 9231,2703 9243,2703 9255,2849 9266,2849 9278,2849 9289,2849 9301,2849 9313,2849 9324,2786 9336,2786 9359,2786 9371,2786 9383,2640 9394,2640 9406,2640 9418,2640 9429,2890 9441,2890 9453,2890 9464,2828 9476,2828 9488,2828 9499,2828 9511,2828 9523,2828 9534,3016 9546,3016 9557,3016 9569,3016 9581,3016 9592,3016 9604,3016 9616,3016 9627,3016 9639,3016 9651,3016 9662,2744 9674,2744 9686,2744 9697,2744 9709,2744 9721,2744 9732,2744 9744,2807 9756,2807 9767,2807 9779,2807 9791,2807 9814,2640 9825,2640 9837,2640 9849,2640 9860,2640 9872,2640 9884,2494 9895,2494 9907,2494 9919,2494 9930,2494 9942,2494 9954,2494 9965,2494 9977,2494 9989,2494 10000,2494 10012,2494 10024,2494 10035,2494 10047,2494 10059,3016 10070,3016 10082,3016 10094,3016 10105,3016 10117,3016 10128,3016 10140,3016 10152,3016 10163,3016 10175,3016 10187,3016 10198,3016 10210,3016 10222,3016 10233,3016 10245,2849 10257,2849 10268,2849 10280,2849 10292,2849 10303,2849 10315,2849 10327,2849 10338,2849 10350,2849 10362,2849 10373,2682 10385,2682 10396,2682 10408,2682 10420,2682 10431,2682 10443,2682 10455,2682 10466,2682 10478,2682 10490,2682 10501,2682 10513,2682 10525,2682 10536,2682 10548,2682 10560,2682 10571,2682 10583,2682 10595,2682 10606,2682 10618,2390 10630,2390 10641,2390 10653,2390 10664,2390 10676,2390 10688,2390 10699,2181 10711,2181 10723,2181 10734,2181 10746,2181 10758,2181 10769,2181 10781,2264 10793,2264 10804,2264 10816,2264 10828,2264 10839,2264 10851,2264 10863,2264 10874,2097 10886,2097 10898,2097 10909,2097 10921,2097 10932,2097 10944,2097 10956,2097 10967,2327 10979,2327 10991,2327 11002,2327 11014,2327 11026,2327 11037,2327 11049,2077 11061,2077 11072,2077 11084,2077 11096,2077 11107,2077 11119,2077 11131,2077 11154,2077 11166,2077 11177,2097 11189,2097 11200,2097 11212,2097 11224,2097 11235,2097 11247,2097 11259,2097 11270,2160 11282,2160 11294,2160 11305,2160 11317,2160 11329,2160 11340,2160 11352,2243 11364,2243 11375,2243 11387,2243 11399,2243 11410,2327 11422,2327 11434,2327 11445,2327 11457,2327 11468,2327 11480,2327 11492,2327 11503,2327 11515,2515 11527,2515 11538,2515 11550,2515 11562,2431 11573,2431 11585,2431 11608,2431 11620,2431 11632,2431 11643,2431 11655,2869 11667,2869 11678,2869 11690,2869 11702,2869 11713,2869 11725,2869 11736,2869 11748,2869 11760,2911 11771,2911 11783,2911 11795,2911 11806,2911 11818,2911 11830,2911 11841,2890 11853,2890 11865,2890 11876,2890 11888,2890 11900,2890 11911,2890 11923,2890 11935,2890 11946,3078 11957,3078 11969,3078 11980,3078 11992,3078 12004,3078 12015,3203 12027,3203 12050,3203 12062,3203 12073,3203 12085,3266 12097,3266 12108,3266 12120,3266 12132,3266 12143,3537 12155,3537 12167,3537 12178,3537 12190,3537 12202,3537 12213,3537 12225,3537 12237,3537 12248,3537 12260,3537 12272,3892 12283,3892 12295,3892 12306,3892 12318,3892 12330,3892 12341,3892 12353,3892 12365,3892 12376,15138 12388,15138 12400,15138 12411,15138 12423,4643 12435,4643 12446,4643 12458,4643 12470,4643 12481,4643 12505,4643 12516,4643 12528,4643 12540,4643 12551,4643 12563,4643 12574,5248 12586,5248 12598,5248 12609,5248 12621,5248 12633,5248 12644,5248 12656,5248 12668,5665 12679,5665 12691,5665 12703,5665 12714,5665 12726,5665 12738,5665 12749,6166 12761,6166 12773,6166 12784,6166 12796,6166 12808,6166 12819,6166 12831,6166 12842,6166 12854,6166 12866,6166 12877,6312 12889,6312 12901,6312 12912,6312 12924,6312 12947,6312 12959,6312 12971,6312 12982,6312 12994,6312 13006,6312 13017,6312 13029,6312 13041,6396 13052,6396 13064,6396 13076,6396 13087,6396 13099,6396 13110,6396 13122,6396 13134,6396 13145,6396 13157,6396 13169,6646 13180,6646 13192,6646 13204,6646 13215,6646 13227,6917 13239,6917 13250,6917 13262,6917 13274,6917 13285,6917 13297,6917 13309,6917 13320,6917 13332,6375 13344,6375 13355,6375 13367,6375 13390,6375 13402,6375 13413,6375 13425,6375 13437,6375 13448,6375 13460,6375 13472,7210 13483,7210 13495,7210 13507,7210 13518,7210 13530,7210 13542,7210 13553,7126 13565,7126 13577,7126 13588,7126 13600,7126 13612,7126 13623,7189 13635,7189 13646,7189 13658,7189 13670,7189 13681,7189 13693,7189 13705,7189 13716,7189 13728,6897 13740,6897 13751,6897 13763,6897 13775,6897 13786,6897 13798,6897 13810,6897 13821,7168 13845,7168 13856,7168 13868,7168 13880,7168 13891,7168 13903,7168 13915,7168 13926,7168 13938,7168 13949,7168 13961,7168 13973,7168 13984,7168 13996,7168 14008,7168 14019,7168 14031,7168 14043,7523 14054,7523 14066,7523 14078,7523 14089,7523 14101,7523 14113,7523 14124,7314 14136,7314 14148,7314 14159,7314 14171,7314 14183,7314 14194,7314 14206,6646 14217,6646 14229,6646 14241,6646 14252,6646 14264,6646 14287,7376 14299,7376 14311,7376 14322,7376 14334,7376 14346,7376 14357,7376 14369,7376 14381,7251 14392,7251 14404,7251 14416,7251 14427,7251 14439,7251 14451,7210 14462,7210 14474,7210 14485,7210 14497,7210 14509,7210 14520,7210 14532,7210 14544,7210 14555,7210 14567,7210 14579,7210 14590,7210 14602,7210 14614,7210 14625,7210 14637,15138 14649,15138 14660,15138 14672,15138 14684,15138 14695,15138 14707,15138 14719,15138 14742,15138 14753,15138 14765,15138 14777,15138 14788,15138 14800,15138 14812,15138 14823,15138 14835,15138 14847,15138 14858,15138 14870,15138 14882,15138 14893,15138 14905,15138 14917,15138 14928,15138 14940,15138 14952,15138 14963,15138 14975,15138 14987,15138 14998,15138 15010,15138 15021,15138 15033,15138 15045,15138 15056,15138 15068,15138 15080,15138 15091,15138 15103,15138 15115,15138 15126,15138 15138,15138 15150,15138 15161,15138 15185,15138 15196,15138 15208,15138 15220,15138 15231,15138 15243,15138 15255,15138 15266,15138 15278,15138 15289,15138 15301,15138 15313,15138 15324,15138 15336,15138 15348,15138 15359,15138 15371,15138 15383,15138 15394,15138 15406,15138 15418,15138 15429,15138 15441,15138 15453,15138 15464,15138 15476,15138 15488,15138 15499,15138 15511,15138 15523,15138 15534,15138 15546,15138 15557,15138 15569,15138 15581,15138 15592,15138 15604,15138 15616,15138 15639,15138 15651,15138 15662,15138 15674,15138 15686,15138 15697,15138 15709,15138 15721,15138 15732,15138 15744,15138 15756,15138 15767,15138 15779,15138 15791,15138 15802,15138 15814,15138 15826,15138 15837,15138 15849,15138 15860,15138 15872,15138 15884,15138 15895,15138 15907,15138 15919,15138 15930,15138 15942,15138 15954,15138 15965,15138 15977,15138 15989,15138 16000,15138 16012,15138 16024,15138 16035,15138 16047,15138 16059,15138 16082,15138 16094,15138 16105,15138 16117,15138 16128,15138 16140,15138 16152,15138 16163,15138 16175,15138 16187,15138 16198,15138 16210,15138 16222,15138 16233,15138 16245,15138 16257,15138 16268,15138 16280,15138 16292,15138 16303,15138 16315,15138 16327,15138 16338,15138 16350,15138 16362,15138 16373,15138 16385,15138 16396,15138 16408,15138 16420,15138 16431,15138 16443,15138 16455,15138 16466,15138 16478,15138 16490,15138 16501,15138 16525,15138 16536,15138 16548,15138 16560,15138 16571,15138 16583,15138 16595,15138 16606,15138 16618,15138 16630,15138 16641,15138 16653,15138 16664,15138 16676,15138 16688,15138 16699,15138 16711,15138 16723,15138 16734,15138 16746,15138 16758,15138 16769,15138 16781,15138 16793,15138 16804,15138 16816,15138 16828,15138 16839,15138 16851,15138 16863,15138 16874,15138 16886,15138 16898,15138 16909,15138 16921,15138 16932,15138 16944,15138 16956,15138 16979,15138 16991,15138 17002,15138 17014,15138 17026,15138 17037,15138 17049,15138 17061,15138 17072,15138 17084,15138 17096,15138 17107,15138 17119,15138 17131,15138 17142,15138 17154,15138 17166,15138 17177,15138 17189,15138 17200,15138 17212,15138 17224,15138 17235,15138 17247,15138 17259,15138 17270,15138 17282,15138 17294,15138 17305,15138 17317,15138 17329,15138 17340,15138 17352,15138 17364,15138 17375,15138 17387,15138 17399,15138 17422,15138 17434,15138 17445,15138 17457,15138 17468,15138 17480,15138 17492,15138 17503,15138 17515,15138 17527,15138 17538,15138 17550,15138 17562,15138 17573,15138 17585,15138 17597,15138 17608,15138 17620,15138 17632,15138 17643,15138 17655,15138 17667,15138 17678,15138 17690,15138 17702,15138 17713,15138 17725,15138 17737,15138 17748,15138 17760,15138 17771,15138 17783,15138 17795,15138 17806,15138 17818,15138 17830,15138 17841,15138 17853,15138 17876,15138 17888,15138 17900,15138 17911,15138 17923,15138 17935,15138 17946,15138 17958,15138 17970,15138 17981,15138 17993,15138 18005,15138 18016,15138 18028,15138 18039,15138 18051,15138 18063,15138 18074,15138 18086,15138 18098,15138 18109,15138 18121,15138 18133,15138 18144,15138 18156,15138 18168,15138 18179,15138 18191,15138 18203,15138 18214,15138 18226,15138 18238,15138 18249,15138 18261,15138 18273,15138 18284,15138 18296,15138 18319,15138 18331,15138 18342,15138 18354,15138 18366,15138 18377,15138 18389,15138 18401,15138 18412,15138 18424,15138 18436,15138 18447,15138 18459,15138 18471,15138 18482,15138 18494,15138 18506,15138 18517,15138 18529,15138 18541,15138 18552,15138 18564,15138 18575,15138 18587,15138 18599,15138 18610,15138 18622,15138 18634,15138 18645,15138 18657,15138 18669,15138 18680,15138 18692,15138 18704,15138 18715,15138 18727,15138 18739,15138 18750,15138 18774,15138 18785,15138 18797,15138 18809,15138 18820,15138 18832,15138 18843,15138 18855,15138 18867,15138 18878,15138 18890,15138 18902,15138 18913,15138 18925,15138 18937,15138 18948,15138 18960,15138 18972,15138 18983,15138 18995,15138 19007,15138 19018,15138 19030,15138 19042,15138 19053,15138 19065,15138 19077,15138 19088,15138 19100,15138 19111,15138 19123,15138 19135,15138 19146,15138 19158,15138 19170,15138 19181,15138 19193,15138 19216,15138 19228,15138 19240,15138 19251,15138 19263,15138 19275,15138 19286,15138 19298,15138 19310,15138 19321,15138 19333,15138 19345,15138 19356,15138 19368,15138 19379,15138 19391,15138 19403,15138 19414,15138 19426,15138 19438,15138 19449,15138 19461,15138 19473,15138 19484,15138 19496,15138 19508,15138 19519,15138 19531,15138 19543,15138 19554,15138 19566,15138 19578,15138 19589,15138 19601,15138 19613,15138 19624,15138 19636,15138 19647,15138"/>
 <path fill="none" stroke="rgb(224,102,102)" stroke-width="53" stroke-linejoin="round" d="M 2182,15138 L 2205,15138 2216,15138 2228,15138 2240,15138 2251,15138 2263,15138 2275,15138 2286,15138 2298,15138 2310,15138 2321,15138 2333,15138 2345,15138 2356,15138 2368,15138 2380,15138 2391,15138 2403,15138 2415,15138 2426,15138 2438,15138 2450,15138 2461,15138 2473,15138 2484,15138 2496,15138 2508,15138 2519,15138 2531,15138 2543,15138 2554,15138 2566,15138 2578,15138 2589,15138 2601,15138 2613,15138 2624,15138 2648,15138 2659,15138 2671,15138 2683,15138 2694,15138 2706,15138 2718,15138 2729,15138 2741,15138 2752,15138 2764,15138 2776,15138 2787,15138 2799,15138 2811,11382 2822,11382 2834,11382 2846,11090 2857,11090 2869,11090 2881,11090 2892,10860 2904,10860 2916,10860 2927,10860 2939,10902 2951,10902 2962,15138 2974,15138 2986,15138 2997,10568 3009,10568 3020,10568 3032,10526 3044,10526 3055,10526 3067,10526 3090,10276 3102,10276 3114,10276 3125,10109 3137,10109 3149,10109 3160,10109 3172,10109 3184,10109 3195,10109 3207,9942 3219,9942 3230,9942 3242,9942 3254,9942 3265,9838 3277,9838 3288,9838 3300,9838 3312,9692 3323,9692 3335,9692 3347,9692 3358,9566 3370,9566 3382,9566 3393,9566 3405,9483 3417,9483 3428,9483 3440,9483 3452,9483 3463,9191 3475,9191 3487,9191 3498,9191 3510,9066 3522,9066 3545,9066 3556,8899 3568,8899 3580,8899 3591,8899 3603,8794 3615,8794 3626,8794 3638,8794 3650,8794 3661,8794 3673,8794 3685,8732 3696,8732 3708,8732 3720,8732 3731,8732 3743,8732 3755,8732 3766,8794 3778,8794 3790,8794 3801,8794 3813,8794 3824,8794 3836,8441 3848,8441 3859,8441 3871,8441 3883,8441 3894,8441 3906,8441 3918,8441 3929,8441 3941,8399 3953,8399 3964,8399 3988,8399 3999,8482 4011,8482 4023,8482 4034,8482 4046,8482 4058,8482 4069,8482 4081,8482 4092,8274 4104,8274 4116,8274 4127,8274 4139,8274 4151,8274 4162,8274 4174,8274 4186,8274 4197,8274 4209,8274 4221,8274 4232,8274 4244,8274 4256,8002 4267,8002 4279,8002 4291,8002 4302,8002 4314,8002 4326,8002 4337,8002 4349,8002 4361,8002 4372,8002 4384,7773 4395,7773 4407,7773 4419,7773 4442,7773 4454,7773 4465,7773 4477,7773 4489,7773 4500,8023 4512,8023 4524,8023 4535,8023 4547,8023 4559,8023 4570,7669 4582,7669 4594,7669 4605,7669 4617,7669 4629,7669 4640,7669 4652,7669 4663,7669 4675,7669 4687,7669 4698,7669 4710,7669 4722,7669 4733,7669 4745,7523 4757,7523 4768,7523 4780,7523 4792,7523 4803,7523 4815,7523 4827,7523 4838,7523 4850,7523 4862,7523 4885,7523 4897,7523 4908,7523 4920,7523 4931,7523 4943,7356 4955,7356 4966,7356 4978,7356 4990,7356 5001,7356 5013,7356 5025,7356 5036,7356 5048,7356 5060,7293 5071,7293 5083,7293 5095,7293 5106,7293 5118,7293 5130,7293 5141,7293 5153,7293 5165,7293 5176,7293 5188,7293 5199,7293 5211,7293 5223,7293 5234,7293 5246,7293 5258,7293 5269,7293 5281,7293 5293,7293 5304,7293 5316,7293 5328,7022 5339,7022 5351,7022 5363,7022 5374,7022 5386,7022 5398,7168 5409,7168 5421,7168 5433,7168 5444,7168 5456,6834 5467,6834 5479,6834 5491,6834 5502,6938 5514,6938 5526,6938 5537,6938 5549,6938 5561,6938 5572,6938 5584,6938 5596,6938 5607,6917 5619,6917 5631,6917 5642,6917 5654,6917 5666,6917 5677,6917 5689,6917 5701,6917 5712,6813 5724,6813 5735,6813 5747,6813 5759,6813 5782,6813 5794,6813 5805,6855 5817,6855 5829,6855 5840,6855 5852,6855 5864,6855 5875,6855 5887,6855 5899,6855 5910,6855 5922,6855 5934,6855 5945,6855 5957,6855 5969,6855 5980,6897 5992,6897 6003,6897 6015,6897 6027,6897 6038,6897 6050,6897 6062,6897 6073,6897 6085,6897 6097,6897 6108,6897 6120,6897 6132,6855 6143,6855 6155,6855 6167,6855 6178,6855 6190,6855 6202,6855 6225,6959 6237,6959 6248,6959 6260,6959 6272,6959 6283,6959 6295,6959 6306,6959 6318,6959 6330,6730 6341,6730 6353,6730 6365,6730 6376,6730 6388,6730 6400,6730 6411,6730 6423,6730 6435,6730 6446,6730 6458,6730 6470,6730 6481,6730 6493,6730 6505,6730 6516,6730 6528,6521 6540,6521 6551,6521 6563,6521 6574,6521 6586,6521 6598,6521 6609,6521 6621,6521 6633,6584 6644,6584 6656,6584 6679,6584 6691,6584 6703,6584 6714,6521 6726,6521 6738,6521 6749,6521 6761,6521 6773,6521 6784,6750 6796,6750 6808,6750 6819,6750 6831,6750 6842,6688 6854,6688 6866,6688 6877,6688 6889,6980 6901,6980 6912,6980 6924,6584 6936,6584 6947,6584 6959,6584 6971,6584 6982,6584 6994,6771 7006,6771 7017,6771 7029,6771 7041,6771 7052,6771 7064,6771 7076,6771 7087,6771 7099,6771 7122,6479 7134,6479 7145,6479 7157,6479 7169,6479 7180,6479 7192,6479 7204,6375 7215,6375 7227,6375 7239,6375 7250,6375 7262,6375 7274,6437 7285,6437 7297,6437 7309,6437 7320,6437 7332,6437 7344,6625 7355,6625 7367,6625 7378,6625 7390,6625 7402,6625 7413,6625 7425,6625 7437,6625 7448,6625 7460,6625 7472,6625 7483,6625 7495,6625 7507,6625 7518,6730 7530,6730 7542,6730 7553,6730 7577,6730 7588,6730 7600,6730 7612,6730 7623,6730 7635,6730 7646,6730 7658,6730 7670,6730 7681,6730 7693,6730 7705,6688 7716,6688 7728,6688 7740,6688 7751,6688 7763,6688 7775,6688 7786,6688 7798,6688 7810,6688 7821,6688 7833,6584 7845,6584 7856,6584 7868,6584 7880,6584 7891,6584 7903,6584 7914,6584 7926,6584 7938,6584 7949,6584 7961,6584 7973,6584 7984,6584 7996,6584 8019,6584 8031,6584 8043,6584 8054,6584 8066,6584 8078,7168 8089,7168 8101,7168 8113,7168 8124,7168 8136,7168 8148,7168 8159,7001 8171,7001 8183,7001 8194,7001 8206,7001 8217,7001 8229,7001 8241,7001 8252,7001 8264,7001 8276,7001 8287,7001 8299,7001 8311,7001 8322,7001 8334,6813 8346,6813 8357,6813 8369,6813 8381,6813 8392,6813 8404,6813 8416,6813 8427,6834 8439,6834 8451,6834 8474,6834 8485,6834 8497,6834 8509,6750 8520,6750 8532,6750 8544,6750 8555,6750 8567,6750 8579,6750 8590,6750 8602,6750 8614,6750 8625,6750 8637,6625 8649,6625 8660,6625 8672,6625 8684,6625 8695,6625 8707,6625 8719,6625 8730,6792 8742,6792 8753,6792 8765,6792 8777,6792 8788,6792 8800,6792 8812,6813 8823,6813 8835,6813 8847,6813 8858,6813 8870,6959 8882,6959 8893,6959 8917,6959 8928,6959 8940,6959 8952,6959 8963,6959 8975,7147 8987,7147 8998,7147 9010,7147 9021,7022 9033,7022 9045,7022 9056,7022 9068,7022 9080,7022 9091,7022 9103,7022 9115,7126 9126,7126 9138,7126 9150,7126 9161,7126 9173,7126 9185,7126 9196,7126 9208,7126 9220,7126 9231,7126 9243,7126 9255,7126 9266,7126 9278,7126 9289,7126 9301,7147 9313,7147 9324,7147 9336,7147 9359,7147 9371,7147 9383,7147 9394,7147 9406,7293 9418,7293 9429,7293 9441,7293 9453,7293 9464,7293 9476,7376 9488,7376 9499,7376 9511,7376 9523,7376 9534,7376 9546,7272 9557,7272 9569,7272 9581,7272 9592,7272 9604,7376 9616,7376 9627,7376 9639,7376 9651,7376 9662,7376 9674,7376 9686,7376 9697,7376 9709,7376 9721,7376 9732,7272 9744,7272 9756,7272 9767,7272 9779,7272 9791,7272 9814,7272 9825,7272 9837,7314 9849,7314 9860,7314 9872,7314 9884,7251 9895,7251 9907,7251 9919,7251 9930,7251 9942,7251 9954,7251 9965,7251 9977,7251 9989,7251 10000,7251 10012,7251 10024,7251 10035,7251 10047,7251 10059,7251 10070,7251 10082,7251 10094,7251 10105,7251 10117,7251 10128,7272 10140,7272 10152,7272 10163,7272 10175,7272 10187,7272 10198,7272 10210,7314 10222,7314 10233,7314 10257,7314 10268,7314 10280,7314 10292,7314 10303,7314 10315,7314 10327,7314 10338,7272 10350,7272 10362,7272 10373,7272 10385,7272 10396,7272 10408,7272 10420,7272 10431,7272 10443,7272 10455,7272 10466,7272 10478,7272 10490,7272 10501,7418 10513,7418 10525,7418 10536,7418 10548,7418 10560,7418 10571,7418 10583,7418 10595,7418 10606,7418 10618,7418 10630,7481 10641,7481 10653,7481 10664,7481 10676,7481 10688,7063 10711,7063 10723,7063 10734,7063 10746,7063 10758,7063 10769,7063 10781,7063 10793,6584 10804,6584 10816,6584 10828,6584 10839,6584 10851,6584 10863,6584 10874,6584 10886,6584 10898,6584 10909,6584 10921,6584 10932,7147 10944,7147 10956,7147 10967,7147 10979,7147 10991,7147 11002,7147 11014,7063 11026,7063 11037,7063 11049,7063 11061,7063 11072,7063 11084,7251 11096,7251 11107,7251 11119,7251 11131,7251 11154,7251 11166,7251 11177,7251 11189,7376 11200,7376 11212,7376 11224,7376 11235,7376 11247,7376 11259,7376 11270,7376 11282,7356 11294,7356 11305,7356 11317,7356 11329,7356 11340,7356 11352,7356 11364,7356 11375,7356 11387,7356 11399,7356 11410,7356 11422,7356 11434,7356 11445,7356 11457,7356 11468,7356 11480,7356 11492,7356 11503,7189 11515,7189 11527,7189 11538,7189 11550,7189 11562,7189 11573,7189 11585,7105 11608,7105 11620,7105 11632,7105 11643,7105 11655,7105 11667,7251 11678,7251 11690,7251 11702,7251 11713,7251 11725,7251 11736,7251 11748,7210 11760,7210 11771,7210 11783,7210 11795,7210 11806,7210 11818,7210 11830,7210 11841,7189 11853,7189 11865,7189 11876,7189 11888,7189 11900,7189 11911,7189 11923,7189 11935,7189 11946,7189 11957,7189 11969,7189 11980,7189 11992,7189 12004,7189 12015,7189 12027,7189 12050,7189 12062,7189 12073,7189 12085,7189 12097,7397 12108,7397 12120,7397 12132,7397 12143,7397 12155,7397 12167,7397 12178,7397 12190,7397 12202,7397 12213,7397 12225,7397 12237,7397 12248,7397 12260,7397 12272,7397 12283,7397 12295,7397 12306,7397 12318,7397 12330,7397 12341,7397 12353,7397 12365,7397 12376,7397 12388,7397 12400,7397 12411,7397 12423,7397 12435,7397 12446,7397 12458,7397 12470,7397 12481,7397 12505,7669 12516,7669 12528,7669 12540,7669 12551,7669 12563,7669 12574,7669 12586,7669 12598,7669 12609,7669 12621,7669 12633,7669 12644,7669 12656,7669 12668,7669 12679,7669 12691,7669 12703,7669 12714,7669 12726,7669 12738,7669 12749,7669 12761,7669 12773,7669 12784,7669 12796,7669 12808,7669 12819,7669 12831,9441 12842,9441 12854,9441 12866,9441 12877,9441 12889,9441 12901,9441 12912,9441 12924,9441 12947,9441 12959,9441 12971,9441 12982,9441 12994,8378 13006,8378 13017,8378 13029,8378 13041,8378 13052,8378 13064,8378 13076,8378 13087,8378 13099,8378 13110,8378 13122,8378 13134,8378 13145,8357 13157,8357 13169,8357 13180,8357 13192,8357 13204,8357 13215,8357 13227,8357 13239,8357 13250,8357 13262,8357 13274,8357 13285,8274 13297,8274 13309,8274 13320,8274 13332,8274 13344,8274 13355,8274 13367,8274 13378,8420 13390,8420 13402,8420 13413,8420 13425,8420 13437,8420 13448,8420 13460,8420 13472,8420 13483,8420 13495,8420 13507,8420 13518,8420 13530,8420 13542,8420 13553,8420 13565,8420 13577,8753 13588,8753 13600,8753 13612,8753 13623,8753 13635,8753 13646,8753 13658,8753 13670,8753 13681,8753 13693,8753 13705,8753 13716,8753 13728,8753 13740,8753 13751,8753 13763,8753 13775,8753 13786,8753 13798,8753 13810,9650 13821,9650 13845,9650 13856,9650 13868,9650 13880,9650 13891,9650 13903,9650 13915,9650 13926,9650 13938,9650 13949,9650 13961,9650 13973,9650 13984,9650 13996,9650 14008,9650 14019,9650 14031,9650 14043,9650 14054,9650 14066,9650 14078,9921 14089,9921 14101,9921 14113,9921 14124,9921 14136,9921 14148,9921 14159,9921 14171,10547 14183,10547 14194,10547 14206,10547 14217,10547 14229,15138 14241,15138 14252,15138 14264,15138 14287,15138 14299,15138 14311,15138 14322,15138 14334,15138 14346,15138 14357,15138 14369,15138 14381,15138 14392,15138 14404,15138 14416,15138 14427,15138 14439,15138 14451,15138 14462,15138 14474,15138 14485,15138 14497,15138 14509,15138 14520,15138 14532,15138 14544,15138 14555,15138 14567,15138 14579,15138 14590,15138 14602,15138 14614,15138 14625,15138 14637,15138 14649,15138 14660,15138 14672,15138 14684,15138 14695,15138 14707,15138 14719,15138 14742,15138 14753,15138 14765,15138 14777,15138 14788,15138 14800,15138 14812,15138 14823,15138 14835,15138 14847,15138 14858,15138 14870,15138 14882,15138 14893,15138 14905,15138 14917,15138 14928,15138 14940,15138 14952,15138 14963,15138 14975,15138 14987,15138 14998,15138 15010,15138 15021,15138 15033,15138 15045,15138 15056,15138 15068,15138 15080,15138 15091,15138 15103,15138 15115,15138 15126,15138 15138,15138 15150,15138 15161,15138 15185,15138 15196,15138 15208,15138 15220,15138 15231,15138 15243,15138 15255,15138 15266,15138 15278,15138 15289,15138 15301,15138 15313,15138 15324,15138 15336,15138 15348,15138 15359,15138 15371,15138 15383,15138 15394,15138 15406,15138 15418,15138 15429,15138 15441,15138 15453,15138 15464,15138 15476,15138 15488,15138 15499,15138 15511,15138 15523,15138 15534,15138 15546,15138 15557,15138 15569,15138 15581,15138 15592,15138 15604,15138 15616,15138 15639,15138 15651,15138 15662,15138 15674,15138 15686,15138 15697,15138 15709,15138 15721,15138 15732,15138 15744,15138 15756,15138 15767,15138 15779,15138 15791,15138 15802,15138 15814,15138 15826,15138 15837,15138 15849,15138 15860,15138 15872,15138 15884,15138 15895,15138 15907,15138 15919,15138 15930,15138 15942,15138 15954,15138 15965,15138 15977,15138 15989,15138 16000,15138 16012,15138 16024,15138 16035,15138 16047,15138 16059,15138 16082,15138 16094,15138 16105,15138 16117,15138 16128,15138 16140,15138 16152,15138 16163,15138 16175,15138 16187,15138 16198,15138 16210,15138 16222,15138 16233,15138 16245,15138 16257,15138 16268,15138 16280,15138 16292,15138 16303,15138 16315,15138 16327,15138 16338,15138 16350,15138 16362,15138 16373,15138 16385,15138 16396,15138 16408,15138 16420,15138 16431,15138 16443,15138 16455,15138 16466,15138 16478,15138 16490,15138 16501,15138 16525,15138 16536,15138 16548,15138 16560,15138 16571,15138 16583,15138 16595,15138 16606,15138 16618,15138 16630,15138 16641,15138 16653,15138 16664,15138 16676,15138 16688,15138 16699,15138 16711,15138 16723,15138 16734,15138 16746,15138 16758,15138 16769,15138 16781,15138 16793,15138 16804,15138 16816,15138 16828,15138 16839,15138 16851,15138 16863,15138 16874,15138 16886,15138 16898,15138 16909,15138 16921,15138 16932,15138 16944,15138 16956,15138 16979,15138 16991,15138 17002,15138 17014,15138 17026,15138 17037,15138 17049,15138 17061,15138 17072,15138 17084,15138 17096,15138 17107,15138 17119,15138 17131,15138 17142,15138 17154,15138 17166,15138 17177,15138 17189,15138 17200,15138 17212,15138 17224,15138 17235,15138 17247,15138 17259,15138 17270,15138 17282,15138 17294,15138 17305,15138 17317,15138 17329,15138 17340,15138 17352,15138 17364,15138 17375,15138 17387,15138 17399,15138 17422,15138 17434,15138 17445,15138 17457,15138 17468,15138 17480,15138 17492,15138 17503,15138 17515,15138 17527,15138 17538,15138 17550,15138 17562,15138 17573,15138 17585,15138 17597,15138 17608,15138 17620,15138 17632,15138 17643,15138 17655,15138 17667,15138 17678,15138 17690,15138 17702,15138 17713,15138 17725,15138 17737,15138 17748,15138 17760,15138 17771,15138 17783,15138 17795,15138 17806,15138 17818,15138 17830,15138 17841,15138 17853,15138 17876,15138 17888,15138 17900,15138 17911,15138 17923,15138 17935,15138 17946,15138 17958,15138 17970,15138 17981,15138 17993,15138 18005,15138 18016,15138 18028,15138 18039,15138 18051,15138 18063,15138 18074,15138 18086,15138 18098,15138 18109,15138 18121,15138 18133,15138 18144,15138 18156,15138 18168,15138 18179,15138 18191,15138 18203,15138 18214,15138 18226,15138 18238,15138 18249,15138 18261,15138 18273,15138 18284,15138 18296,15138 18319,15138 18331,15138 18342,15138 18354,15138 18366,15138 18377,15138 18389,15138 18401,15138 18412,15138 18424,15138 18436,15138 18447,15138 18459,15138 18471,15138 18482,15138 18494,15138 18506,15138 18517,15138 18529,15138 18541,15138 18552,15138 18564,15138 18575,15138 18587,15138 18599,15138 18610,15138 18622,15138 18634,15138 18645,15138 18657,15138 18669,15138 18680,15138 18692,15138 18704,15138 18715,15138 18727,15138 18739,15138 18750,15138 18774,15138 18785,15138 18797,15138 18809,15138 18820,15138 18832,15138 18843,15138 18855,15138 18867,15138 18878,15138 18890,15138 18902,15138 18913,15138 18925,15138 18937,15138 18948,15138 18960,15138 18972,15138 18983,15138 18995,15138 19007,15138 19018,15138 19030,15138 19042,15138 19053,15138 19065,15138 19077,15138 19088,15138 19100,15138 19111,15138 19123,15138 19135,15138 19146,15138 19158,15138 19170,15138 19181,15138 19193,15138 19216,15138 19228,15138 19240,15138 19251,15138 19263,15138 19275,15138 19286,15138 19298,15138 19310,15138 19321,15138 19333,15138 19345,15138 19356,15138 19368,15138 19379,15138 19391,15138 19403,15138 19414,15138 19426,15138 19438,15138 19449,15138 19461,15138 19473,15138 19484,15138 19496,15138 19508,15138 19519,15138 19531,15138 19543,15138 19554,15138 19566,15138 19578,15138 19589,15138 19601,15138 19613,15138 19624,15138 19636,15138 19647,15138"/>
 <path fill="none" stroke="rgb(147,196,125)" stroke-width="53" stroke-linejoin="round" d="M 2182,15138 L 2205,15138 2216,15138 2228,15138 2240,15138 2251,15138 2263,15138 2275,15138 2286,15138 2298,15138 2310,15138 2321,15138 2333,15138 2345,15138 2356,15138 2368,15138 2380,15138 2391,15138 2403,15138 2415,15138 2426,15138 2438,15138 2450,15138 2461,15138 2473,15138 2484,15138 2496,15138 2508,15138 2519,15138 2531,15138 2543,15138 2554,15138 2566,15138 2578,15138 2589,15138 2601,15138 2613,15138 2624,15138 2648,15138 2659,15138 2671,15138 2683,15138 2694,15138 2706,15138 2718,15138 2729,15138 2741,15138 2752,15138 2764,15138 2776,15138 2787,15138 2799,15138 2811,11006 2822,11006 2834,11006 2846,10631 2857,10631 2869,10631 2881,10631 2892,10213 2904,10213 2916,10213 2927,10213 2939,9963 2951,9963 2962,15138 2974,15138 2986,15138 2997,9483 3009,9483 3020,9483 3032,9441 3044,9441 3055,9441 3067,9441 3090,9045 3102,9045 3114,9045 3125,8691 3137,8691 3149,8691 3160,8691 3172,8691 3184,8691 3195,8691 3207,8566 3219,8566 3230,8566 3242,8566 3254,8566 3265,8378 3277,8378 3288,8378 3300,8378 3312,8086 3323,8086 3335,8086 3347,8086 3358,7940 3370,7940 3382,7940 3393,7940 3405,7627 3417,7627 3428,7627 3440,7627 3452,7627 3463,7251 3475,7251 3487,7251 3498,7251 3510,7189 3522,7189 3545,7189 3556,7126 3568,7126 3580,7126 3591,7126 3603,6855 3615,6855 3626,6855 3638,6855 3650,6855 3661,6855 3673,6855 3685,6625 3696,6625 3708,6625 3720,6625 3731,6625 3743,6625 3755,6625 3766,6521 3778,6521 3790,6521 3801,6521 3813,6521 3824,6521 3836,6145 3848,6145 3859,6145 3871,6145 3883,6145 3894,6145 3906,6145 3918,6145 3929,6145 3941,5978 3953,5978 3964,5978 3988,5978 3999,6041 4011,6041 4023,6041 4034,6041 4046,6041 4058,6041 4069,6041 4081,6041 4092,6020 4104,6020 4116,6020 4127,6020 4139,6020 4151,6020 4162,6020 4174,6020 4186,6020 4197,6020 4209,6020 4221,6020 4232,6020 4244,6020 4256,5916 4267,5916 4279,5916 4291,5916 4302,5916 4314,5916 4326,5916 4337,5916 4349,5916 4361,5916 4372,5916 4384,5436 4395,5436 4407,5436 4419,5436 4442,5436 4454,5436 4465,5436 4477,5436 4489,5436 4500,5645 4512,5645 4524,5645 4535,5645 4547,5645 4559,5645 4570,4956 4582,4956 4594,4956 4605,4956 4617,4956 4629,4956 4640,4956 4652,4956 4663,4956 4675,4956 4687,4956 4698,4956 4710,4956 4722,4956 4733,4956 4745,4372 4757,4372 4768,4372 4780,4372 4792,4372 4803,4372 4815,4372 4827,4372 4838,4372 4850,4372 4862,4372 4885,4372 4897,4372 4908,4372 4920,4372 4931,4372 4943,4414 4955,4414 4966,4414 4978,4414 4990,4414 5001,4414 5013,4414 5025,4414 5036,4414 5048,4414 5060,4142 5071,4142 5083,4142 5095,4142 5106,4142 5118,4142 5130,4142 5141,4142 5153,4142 5165,4142 5176,4142 5188,4142 5199,4142 5211,4142 5223,4142 5234,4142 5246,4142 5258,4142 5269,4142 5281,4142 5293,4142 5304,4142 5316,4142 5328,4017 5339,4017 5351,4017 5363,4017 5374,4017 5386,4017 5398,4017 5409,4017 5421,4017 5433,4017 5444,4017 5456,3954 5467,3954 5479,3954 5491,3954 5502,4101 5514,4101 5526,4101 5537,4101 5549,4101 5561,4101 5572,4101 5584,4101 5596,4101 5607,4017 5619,4017 5631,4017 5642,4017 5654,4017 5666,4017 5677,4017 5689,4017 5701,4017 5712,3808 5724,3808 5735,3808 5747,3808 5759,3808 5782,3808 5794,3808 5805,3996 5817,3996 5829,3996 5840,3996 5852,3996 5864,3996 5875,3996 5887,3996 5899,3996 5910,3996 5922,3996 5934,3996 5945,3996 5957,3996 5969,3996 5980,4184 5992,4184 6003,4184 6015,4184 6027,4184 6038,4184 6050,4184 6062,4184 6073,4184 6085,4184 6097,4184 6108,4184 6120,4184 6132,4142 6143,4142 6155,4142 6167,4142 6178,4142 6190,4142 6202,4142 6225,4768 6237,4768 6248,4768 6260,4768 6272,4768 6283,4768 6295,4768 6306,4768 6318,4768 6330,4580 6341,4580 6353,4580 6365,4580 6376,4580 6388,4580 6400,4580 6411,4580 6423,4580 6435,4580 6446,4580 6458,4580 6470,4580 6481,4580 6493,4580 6505,4580 6516,4580 6528,4205 6540,4205 6551,4205 6563,4205 6574,4205 6586,4205 6598,4205 6609,4205 6621,4205 6633,4372 6644,4372 6656,4372 6679,4372 6691,4372 6703,4372 6714,4247 6726,4247 6738,4247 6749,4247 6761,4247 6773,4247 6784,4351 6796,4351 6808,4351 6819,4351 6831,4351 6842,4226 6854,4226 6866,4226 6877,4226 6889,4539 6901,4539 6912,4539 6924,4184 6936,4184 6947,4184 6959,4184 6971,4184 6982,4184 6994,4518 7006,4518 7017,4518 7029,4518 7041,4518 7052,4518 7064,4518 7076,4518 7087,4518 7099,4518 7122,4184 7134,4184 7145,4184 7157,4184 7169,4184 7180,4184 7192,4184 7204,4267 7215,4267 7227,4267 7239,4267 7250,4267 7262,4267 7274,4142 7285,4142 7297,4142 7309,4142 7320,4142 7332,4142 7344,4163 7355,4163 7367,4163 7378,4163 7390,4163 7402,4163 7413,4163 7425,4163 7437,4163 7448,4163 7460,4163 7472,4163 7483,4163 7495,4163 7507,4163 7518,4643 7530,4643 7542,4643 7553,4643 7577,4643 7588,4643 7600,4643 7612,4643 7623,4643 7635,4643 7646,4643 7658,4643 7670,4643 7681,4643 7693,4643 7705,4267 7716,4267 7728,4267 7740,4267 7751,4267 7763,4267 7775,4267 7786,4267 7798,4267 7810,4267 7821,4267 7833,3954 7845,3954 7856,3954 7868,3954 7880,3954 7891,3954 7903,3954 7914,3954 7926,3954 7938,3954 7949,3954 7961,3954 7973,3954 7984,3954 7996,3954 8019,3954 8031,3954 8043,3954 8054,3954 8066,3954 8078,3767 8089,3767 8101,3767 8113,3767 8124,3767 8136,3767 8148,3767 8159,3850 8171,3850 8183,3850 8194,3850 8206,3850 8217,3850 8229,3850 8241,3871 8252,3871 8264,3871 8276,3871 8287,3871 8299,3871 8311,3871 8322,3871 8334,3746 8346,3746 8357,3746 8369,3746 8381,3746 8392,3746 8404,3746 8416,3746 8427,3746 8439,3746 8451,3746 8474,3746 8485,3746 8497,3746 8509,3662 8520,3662 8532,3662 8544,3662 8555,3662 8567,3662 8579,3662 8590,3662 8602,3662 8614,3662 8625,3662 8637,3746 8649,3746 8660,3746 8672,3746 8684,3746 8695,3746 8707,3746 8719,3746 8730,3767 8742,3767 8753,3767 8765,3767 8777,3767 8788,3767 8800,3767 8812,3788 8823,3788 8835,3788 8847,3788 8858,3788 8870,3829 8882,3829 8893,3829 8917,3829 8928,3829 8940,3829 8952,3829 8963,3829 8975,3767 8987,3767 8998,3767 9010,3767 9021,3683 9033,3683 9045,3683 9056,3683 9068,3683 9080,3683 9091,3683 9103,3683 9115,3871 9126,3871 9138,3871 9150,3871 9161,3871 9173,3871 9185,3871 9196,3871 9208,3871 9220,3975 9231,3975 9243,3975 9255,3975 9266,3975 9278,3975 9289,3975 9301,3913 9313,3913 9324,3913 9336,3913 9359,3913 9371,3913 9383,3913 9394,3913 9406,3913 9418,3913 9429,3913 9441,3913 9453,3913 9464,3913 9476,3892 9488,3892 9499,3892 9511,3892 9523,3892 9534,3892 9546,3767 9557,3767 9569,3767 9581,3767 9592,3767 9604,3934 9616,3934 9627,3934 9639,3934 9651,3934 9662,3934 9674,3934 9686,3934 9697,3934 9709,3934 9721,3934 9732,3975 9744,3975 9756,3975 9767,3975 9779,3975 9791,3975 9814,3975 9825,3975 9837,4080 9849,4080 9860,4080 9872,4080 9884,3975 9895,3975 9907,3975 9919,3975 9930,3975 9942,3975 9954,3975 9965,3975 9977,3975 9989,3975 10000,3975 10012,3975 10024,3975 10035,4351 10047,4351 10059,4351 10070,4351 10082,4351 10094,4351 10105,4351 10117,4351 10128,4351 10140,4351 10152,4351 10163,4351 10175,4351 10187,4351 10198,4351 10210,4267 10222,4267 10233,4267 10257,4267 10268,4267 10280,4267 10292,4267 10303,4267 10315,4267 10327,4267 10338,4434 10350,4434 10362,4434 10373,4434 10385,4434 10396,4434 10408,4434 10420,4434 10431,4434 10443,4434 10455,4434 10466,4434 10478,4434 10490,4434 10501,4205 10513,4205 10525,4205 10536,4205 10548,4205 10560,4205 10571,4205 10583,4205 10595,4205 10606,4205 10618,4205 10630,4497 10641,4497 10653,4497 10664,4497 10676,4497 10688,4434 10711,4434 10723,4434 10734,4434 10746,4434 10758,4434 10769,4434 10781,4434 10793,4080 10804,4080 10816,4080 10828,4080 10839,4080 10851,4080 10863,4080 10874,4080 10886,4080 10898,4080 10909,4080 10921,4080 10932,4455 10944,4455 10956,4455 10967,4455 10979,4455 10991,4455 11002,4455 11014,4393 11026,4393 11037,4393 11049,4393 11061,4393 11072,4393 11084,4455 11096,4455 11107,4455 11119,4455 11131,4455 11154,4455 11166,4455 11177,4455 11189,4434 11200,4434 11212,4434 11224,4434 11235,4434 11247,4434 11259,4434 11270,4434 11282,4393 11294,4393 11305,4393 11317,4393 11329,4393 11340,4393 11352,4393 11364,4393 11375,4393 11387,4393 11399,4393 11410,4393 11422,4393 11434,4393 11445,4393 11457,4393 11468,4393 11480,4393 11492,4393 11503,4393 11515,4393 11527,4393 11538,4393 11550,4393 11562,4393 11573,4393 11585,4393 11608,4393 11620,4393 11632,4393 11643,4393 11655,4393 11667,4539 11678,4539 11690,4539 11702,4539 11713,4539 11725,4539 11736,4539 11748,4539 11760,4539 11771,4539 11783,4539 11795,4539 11806,4539 11818,4539 11830,4539 11841,4393 11853,4393 11865,4393 11876,4393 11888,4393 11900,4393 11911,4288 11923,4288 11935,4288 11946,4288 11957,4288 11969,4288 11980,4288 11992,4288 12004,4288 12015,4288 12027,4288 12050,4288 12062,4288 12073,4288 12085,4288 12097,4706 12108,4706 12120,4706 12132,4706 12143,4706 12155,4706 12167,4706 12178,4706 12190,4706 12202,4706 12213,4706 12225,4706 12237,4706 12248,4706 12260,4706 12272,4706 12283,4706 12295,4706 12306,4706 12318,4706 12330,4706 12341,4706 12353,4706 12365,4706 12376,4706 12388,4706 12400,4706 12411,4706 12423,4706 12435,4706 12446,4706 12458,4706 12470,4706 12481,4706 12505,5039 12516,5039 12528,5039 12540,5039 12551,5039 12563,5039 12574,5039 12586,5039 12598,5039 12609,5039 12621,5039 12633,5039 12644,5039 12656,5039 12668,5039 12679,5039 12691,5039 12703,5039 12714,5039 12726,5039 12738,5039 12749,5039 12761,5039 12773,5039 12784,5039 12796,5039 12808,5039 12819,5039 12831,5290 12842,5290 12854,5290 12866,5290 12877,5290 12889,5290 12901,5290 12912,5290 12924,5290 12947,5290 12959,5290 12971,5290 12982,5290 12994,5603 13006,5603 13017,5603 13029,5603 13041,5603 13052,5603 13064,5603 13076,5603 13087,5603 13099,5603 13110,5603 13122,5603 13134,5603 13145,6458 13157,6458 13169,6458 13180,6458 13192,6458 13204,6458 13215,6458 13227,6458 13239,6458 13250,6458 13262,6458 13274,6458 13285,6354 13297,6354 13309,6354 13320,6354 13332,6354 13344,6354 13355,6354 13367,6354 13378,6479 13390,6479 13402,6479 13413,6479 13425,6479 13437,6479 13448,6479 13460,6479 13472,6479 13483,6479 13495,6479 13507,6479 13518,6479 13530,6479 13542,6479 13553,6479 13565,6479 13577,6187 13588,6187 13600,6187 13612,6187 13623,6187 13635,6187 13646,6187 13658,6187 13670,6187 13681,6187 13693,6187 13705,6187 13716,6187 13728,6187 13740,6187 13751,6187 13763,6187 13775,6187 13786,6187 13798,6187 13810,6792 13821,6792 13845,6792 13856,6792 13868,6792 13880,6792 13891,6792 13903,6792 13915,6792 13926,6792 13938,6792 13949,6792 13961,6792 13973,6792 13984,6792 13996,6792 14008,6792 14019,6792 14031,6792 14043,6792 14054,6792 14066,6792 14078,7356 14089,7356 14101,7356 14113,7356 14124,7356 14136,7356 14148,7356 14159,7356 14171,7523 14183,7523 14194,7523 14206,7523 14217,7523 14229,7376 14241,7376 14252,7376 14264,7376 14287,7376 14299,7376 14311,7836 14322,7836 14334,7836 14346,7836 14357,7836 14369,7731 14381,7731 14392,7731 14404,7731 14416,7731 14427,7731 14439,7731 14451,7731 14462,7731 14474,7731 14485,7731 14497,8253 14509,8253 14520,8253 14532,8253 14544,8253 14555,8253 14567,8253 14579,8253 14590,8253 14602,8253 14614,8253 14625,8253 14637,8253 14649,8253 14660,8253 14672,8253 14684,8253 14695,8773 14707,8773 14719,8773 14742,8773 14753,8773 14765,8773 14777,8773 14788,8773 14800,8773 14812,8773 14823,8773 14835,8773 14847,8773 14858,8773 14870,8773 14882,8773 14893,8773 14905,8773 14917,8773 14928,8773 14940,8773 14952,8773 14963,8773 14975,8773 14987,8773 14998,8773 15010,8773 15021,8773 15033,8773 15045,8773 15056,8773 15068,8773 15080,8773 15091,8773 15103,8773 15115,8773 15126,8773 15138,8773 15150,8773 15161,8773 15185,8773 15196,8773 15208,8773 15220,8773 15231,8773 15243,15138 15255,15138 15266,15138 15278,15138 15289,15138 15301,15138 15313,15138 15324,15138 15336,15138 15348,15138 15359,15138 15371,15138 15383,15138 15394,15138 15406,15138 15418,15138 15429,15138 15441,15138 15453,15138 15464,15138 15476,15138 15488,15138 15499,15138 15511,15138 15523,15138 15534,15138 15546,15138 15557,15138 15569,15138 15581,15138 15592,15138 15604,15138 15616,15138 15639,15138 15651,15138 15662,15138 15674,15138 15686,15138 15697,15138 15709,15138 15721,15138 15732,15138 15744,15138 15756,15138 15767,15138 15779,15138 15791,15138 15802,15138 15814,15138 15826,15138 15837,15138 15849,15138 15860,15138 15872,15138 15884,15138 15895,15138 15907,15138 15919,15138 15930,15138 15942,15138 15954,15138 15965,15138 15977,15138 15989,15138 16000,15138 16012,15138 16024,15138 16035,15138 16047,15138 16059,15138 16082,15138 16094,15138 16105,15138 16117,15138 16128,15138 16140,15138 16152,15138 16163,15138 16175,15138 16187,15138 16198,15138 16210,15138 16222,15138 16233,15138 16245,15138 16257,15138 16268,15138 16280,15138 16292,15138 16303,15138 16315,15138 16327,15138 16338,15138 16350,15138 16362,15138 16373,15138 16385,15138 16396,15138 16408,15138 16420,15138 16431,15138 16443,15138 16455,15138 16466,15138 16478,15138 16490,15138 16501,15138 16525,15138 16536,15138 16548,15138 16560,15138 16571,15138 16583,15138 16595,15138 16606,15138 16618,15138 16630,15138 16641,15138 16653,15138 16664,15138 16676,15138 16688,15138 16699,15138 16711,15138 16723,15138 16734,15138 16746,15138 16758,15138 16769,15138 16781,15138 16793,15138 16804,15138 16816,15138 16828,15138 16839,15138 16851,15138 16863,15138 16874,15138 16886,15138 16898,15138 16909,15138 16921,15138 16932,15138 16944,15138 16956,15138 16979,15138 16991,15138 17002,15138 17014,15138 17026,15138 17037,15138 17049,15138 17061,15138 17072,15138 17084,15138 17096,15138 17107,15138 17119,15138 17131,15138 17142,15138 17154,15138 17166,15138 17177,15138 17189,15138 17200,15138 17212,15138 17224,15138 17235,15138 17247,15138 17259,15138 17270,15138 17282,15138 17294,15138 17305,15138 17317,15138 17329,15138 17340,15138 17352,15138 17364,15138 17375,15138 17387,15138 17399,15138 17422,15138 17434,15138 17445,15138 17457,15138 17468,15138 17480,15138 17492,15138 17503,15138 17515,15138 17527,15138 17538,15138 17550,15138 17562,15138 17573,15138 17585,15138 17597,15138 17608,15138 17620,15138 17632,15138 17643,15138 17655,15138 17667,15138 17678,15138 17690,15138 17702,15138 17713,15138 17725,15138 17737,15138 17748,15138 17760,15138 17771,15138 17783,15138 17795,15138 17806,15138 17818,15138 17830,15138 17841,15138 17853,15138 17876,15138 17888,15138 17900,15138 17911,15138 17923,15138 17935,15138 17946,15138 17958,15138 17970,15138 17981,15138 17993,15138 18005,15138 18016,15138 18028,15138 18039,15138 18051,15138 18063,15138 18074,15138 18086,15138 18098,15138 18109,15138 18121,15138 18133,15138 18144,15138 18156,15138 18168,15138 18179,15138 18191,15138 18203,15138 18214,15138 18226,15138 18238,15138 18249,15138 18261,15138 18273,15138 18284,15138 18296,15138 18319,15138 18331,15138 18342,15138 18354,15138 18366,15138 18377,15138 18389,15138 18401,15138 18412,15138 18424,15138 18436,15138 18447,15138 18459,15138 18471,15138 18482,15138 18494,15138 18506,15138 18517,15138 18529,15138 18541,15138 18552,15138 18564,15138 18575,15138 18587,15138 18599,15138 18610,15138 18622,15138 18634,15138 18645,15138 18657,15138 18669,15138 18680,15138 18692,15138 18704,15138 18715,15138 18727,15138 18739,15138 18750,15138 18774,15138 18785,15138 18797,15138 18809,15138 18820,15138 18832,15138 18843,15138 18855,15138 18867,15138 18878,15138 18890,15138 18902,15138 18913,15138 18925,15138 18937,15138 18948,15138 18960,15138 18972,15138 18983,15138 18995,15138 19007,15138 19018,15138 19030,15138 19042,15138 19053,15138 19065,15138 19077,15138 19088,15138 19100,15138 19111,15138 19123,15138 19135,15138 19146,15138 19158,15138 19170,15138 19181,15138 19193,15138 19216,15138 19228,15138 19240,15138 19251,15138 19263,15138 19275,15138 19286,15138 19298,15138 19310,15138 19321,15138 19333,15138 19345,15138 19356,15138 19368,15138 19379,15138 19391,15138 19403,15138 19414,15138 19426,15138 19438,15138 19449,15138 19461,15138 19473,15138 19484,15138 19496,15138 19508,15138 19519,15138 19531,15138 19543,15138 19554,15138 19566,15138 19578,15138 19589,15138 19601,15138 19613,15138 19624,15138 19636,15138 19647,15138"/>
 <text class="SVGTextShape" transform="rotate(-44.9 2157 15595)"><tspan class="TextParagraph" font-family="Arial, sans-serif" font-size="353px" font-weight="400"><tspan class="TextPosition" x="2157" y="15595"><tspan fill="rgb(0,0,0)" stroke="none" style="white-space: pre">3</tspan></tspan></tspan></text>
 <text class="SVGTextShape" transform="rotate(-44.9 2620 15725)"><tspan class="TextParagraph" font-family="Arial, sans-serif" font-size="353px" font-weight="400"><tspan class="TextPosition" x="2620" y="15725"><tspan fill="rgb(0,0,0)" stroke="none" style="white-space: pre">54</tspan></tspan></tspan></text>
 <text class="SVGTextShape" transform="rotate(-44.9 3083 15857)"><tspan class="TextParagraph" font-family="Arial, sans-serif" font-size="353px" font-weight="400"><tspan class="TextPosition" x="3083" y="15857"><tspan fill="rgb(0,0,0)" stroke="none" style="white-space: pre">105</tspan></tspan></tspan></text>
 <text class="SVGTextShape" transform="rotate(-44.9 3678 15857)"><tspan class="TextParagraph" font-family="Arial, sans-serif" font-size="353px" font-weight="400"><tspan class="TextPosition" x="3678" y="15857"><tspan fill="rgb(0,0,0)" stroke="none" style="white-space: pre">156</tspan></tspan></tspan></text>
 <text class="SVGTextShape" transform="rotate(-44.9 4272 15857)"><tspan class="TextParagraph" font-family="Arial, sans-serif" font-size="353px" font-weight="400"><tspan class="TextPosition" x="4272" y="15857"><tspan fill="rgb(0,0,0)" stroke="none" style="white-space: pre">207</tspan></tspan></tspan></text>
 <text class="SVGTextShape" transform="rotate(-44.9 4866 15857)"><tspan class="TextParagraph" font-family="Arial, sans-serif" font-size="353px" font-weight="400"><tspan class="TextPosition" x="4866" y="15857"><tspan fill="rgb(0,0,0)" stroke="none" style="white-space: pre">258</tspan></tspan></tspan></text>
 <text class="SVGTextShape" transform="rotate(-44.9 5460 15857)"><tspan class="TextParagraph" font-family="Arial, sans-serif" font-size="353px" font-weight="400"><tspan class="TextPosition" x="5460" y="15857"><tspan fill="rgb(0,0,0)" stroke="none" style="white-space: pre">309</tspan></tspan></tspan></text>
 <text class="SVGTextShape" transform="rotate(-44.9 6055 15857)"><tspan class="TextParagraph" font-family="Arial, sans-serif" font-size="353px" font-weight="400"><tspan class="TextPosition" x="6055" y="15857"><tspan fill="rgb(0,0,0)" stroke="none" style="white-space: pre">360</tspan></tspan></tspan></text>
 <text class="SVGTextShape" transform="rotate(-44.9 6649 15857)"><tspan class="TextParagraph" font-family="Arial, sans-serif" font-size="353px" font-weight="400"><tspan class="TextPosition" x="6649" y="15857"><tspan fill="rgb(0,0,0)" stroke="none" style="white-space: pre">411</tspan></tspan></tspan></text>
 <text class="SVGTextShape" transform="rotate(-44.9 7243 15857)"><tspan class="TextParagraph" font-family="Arial, sans-serif" font-size="353px" font-weight="400"><tspan class="TextPosition" x="7243" y="15857"><tspan fill="rgb(0,0,0)" stroke="none" style="white-space: pre">462</tspan></tspan></tspan></text>
 <text class="SVGTextShape" transform="rotate(-44.9 7838 15857)"><tspan class="TextParagraph" font-family="Arial, sans-serif" font-size="353px" font-weight="400"><tspan class="TextPosition" x="7838" y="15857"><tspan fill="rgb(0,0,0)" stroke="none" style="white-space: pre">513</tspan></tspan></tspan></text>
 <text class="SVGTextShape" transform="rotate(-44.9 8432 15857)"><tspan class="TextParagraph" font-family="Arial, sans-serif" font-size="353px" font-weight="400"><tspan class="TextPosition" x="8432" y="15857"><tspan fill="rgb(0,0,0)" stroke="none" style="white-space: pre">564</tspan></tspan></tspan></text>
 <text class="SVGTextShape" transform="rotate(-44.9 9026 15857)"><tspan class="TextParagraph" font-family="Arial, sans-serif" font-size="353px" font-weight="400"><tspan class="TextPosition" x="9026" y="15857"><tspan fill="rgb(0,0,0)" stroke="none" style="white-space: pre">615</tspan></tspan></tspan></text>
 <text class="SVGTextShape" transform="rotate(-44.9 9620 15857)"><tspan class="TextParagraph" font-family="Arial, sans-serif" font-size="353px" font-weight="400"><tspan class="TextPosition" x="9620" y="15857"><tspan fill="rgb(0,0,0)" stroke="none" style="white-space: pre">666</tspan></tspan></tspan></text>
 <text class="SVGTextShape" transform="rotate(-44.9 10215 15857)"><tspan class="TextParagraph" font-family="Arial, sans-serif" font-size="353px" font-weight="400"><tspan class="TextPosition" x="10215" y="15857"><tspan fill="rgb(0,0,0)" stroke="none" style="white-space: pre">717</tspan></tspan></tspan></text>
 <text class="SVGTextShape" transform="rotate(-44.9 10809 15857)"><tspan class="TextParagraph" font-family="Arial, sans-serif" font-size="353px" font-weight="400"><tspan class="TextPosition" x="10809" y="15857"><tspan fill="rgb(0,0,0)" stroke="none" style="white-space: pre">768</tspan></tspan></tspan></text>
 <text class="SVGTextShape" transform="rotate(-44.9 11403 15857)"><tspan class="TextParagraph" font-family="Arial, sans-serif" font-size="353px" font-weight="400"><tspan class="TextPosition" x="11403" y="15857"><tspan fill="rgb(0,0,0)" stroke="none" style="white-space: pre">819</tspan></tspan></tspan></text>
 <text class="SVGTextShape" transform="rotate(-44.9 11997 15857)"><tspan class="TextParagraph" font-family="Arial, sans-serif" font-size="353px" font-weight="400"><tspan class="TextPosition" x="11997" y="15857"><tspan fill="rgb(0,0,0)" stroke="none" style="white-space: pre">870</tspan></tspan></tspan></text>
 <text class="SVGTextShape" transform="rotate(-44.9 12592 15857)"><tspan class="TextParagraph" font-family="Arial, sans-serif" font-size="353px" font-weight="400"><tspan class="TextPosition" x="12592" y="15857"><tspan fill="rgb(0,0,0)" stroke="none" style="white-space: pre">921</tspan></tspan></tspan></text>
 <text class="SVGTextShape" transform="rotate(-44.9 13186 15857)"><tspan class="TextParagraph" font-family="Arial, sans-serif" font-size="353px" font-weight="400"><tspan class="TextPosition" x="13186" y="15857"><tspan fill="rgb(0,0,0)" stroke="none" style="white-space: pre">972</tspan></tspan></tspan></text>
 <text class="SVGTextShape" transform="rotate(-44.9 13649 15987)"><tspan class="TextParagraph" font-family="Arial, sans-serif" font-size="353px" font-weight="400"><tspan class="TextPosition" x="13649" y="15987"><tspan fill="rgb(0,0,0)" stroke="none" style="white-space: pre">1023</tspan></tspan></tspan></text>
 <text class="SVGTextShape" transform="rotate(-44.9 14244 15987)"><tspan class="TextParagraph" font-family="Arial, sans-serif" font-size="353px" font-weight="400"><tspan class="TextPosition" x="14244" y="15987"><tspan fill="rgb(0,0,0)" stroke="none" style="white-space: pre">1074</tspan></tspan></tspan></text>
 <text class="SVGTextShape" transform="rotate(-44.9 14838 15987)"><tspan class="TextParagraph" font-family="Arial, sans-serif" font-size="353px" font-weight="400"><tspan class="TextPosition" x="14838" y="15987"><tspan fill="rgb(0,0,0)" stroke="none" style="white-space: pre">1125</tspan></tspan></tspan></text>
 <text class="SVGTextShape" transform="rotate(-44.9 15432 15987)"><tspan class="TextParagraph" font-family="Arial, sans-serif" font-size="353px" font-weight="400"><tspan class="TextPosition" x="15432" y="15987"><tspan fill="rgb(0,0,0)" stroke="none" style="white-space: pre">1176</tspan></tspan></tspan></text>
 <text class="SVGTextShape" transform="rotate(-44.9 16026 15987)"><tspan class="TextParagraph" font-family="Arial, sans-serif" font-size="353px" font-weight="400"><tspan class="TextPosition" x="16026" y="15987"><tspan fill="rgb(0,0,0)" stroke="none" style="white-space: pre">1227</tspan></tspan></tspan></text>
 <text class="SVGTextShape" transform="rotate(-44.9 16621 15987)"><tspan class="TextParagraph" font-family="Arial, sans-serif" font-size="353px" font-weight="400"><tspan class="TextPosition" x="16621" y="15987"><tspan fill="rgb(0,0,0)" stroke="none" style="white-space: pre">1278</tspan></tspan></tspan></text>
 <text class="SVGTextShape" transform="rotate(-44.9 17214 15987)"><tspan class="TextParagraph" font-family="Arial, sans-serif" font-size="353px" font-weight="400"><tspan class="TextPosition" x="17214" y="15987"><tspan fill="rgb(0,0,0)" stroke="none" style="white-space: pre">1329</tspan></tspan></tspan></text>
 <text class="SVGTextShape" transform="rotate(-44.9 17808 15987)"><tspan class="TextParagraph" font-family="Arial, sans-serif" font-size="353px" font-weight="400"><tspan class="TextPosition" x="17808" y="15987"><tspan fill="rgb(0,0,0)" stroke="none" style="white-space: pre">1380</tspan></tspan></tspan></text>
 <text class="SVGTextShape" transform="rotate(-44.9 18402 15987)"><tspan class="TextParagraph" font-family="Arial, sans-serif" font-size="353px" font-weight="400"><tspan class="TextPosition" x="18402" y="15987"><tspan fill="rgb(0,0,0)" stroke="none" style="white-space: pre">1431</tspan></tspan></tspan></text>
 <text class="SVGTextShape" transform="rotate(-44.9 18997 15987)"><tspan class="TextParagraph" font-family="Arial, sans-serif" font-size="353px" font-weight="400"><tspan class="TextPosition" x="18997" y="15987"><tspan fill="rgb(0,0,0)" stroke="none" style="white-space: pre">1482</tspan></tspan></tspan></text>
 <text class="SVGTextShape"><tspan class="TextParagraph" font-family="Arial, sans-serif" font-size="353px" font-weight="400"><tspan class="TextPosition" x="1897" y="15259"><tspan fill="rgb(0,0,0)" stroke="none" style="white-space: pre">0</tspan></tspan></tspan></text>
 <text class="SVGTextShape"><tspan class="TextParagraph" font-family="Arial, sans-serif" font-size="353px" font-weight="400"><tspan class="TextPosition" x="1526" y="13172"><tspan fill="rgb(0,0,0)" stroke="none" style="white-space: pre">100</tspan></tspan></tspan></text>
 <text class="SVGTextShape"><tspan class="TextParagraph" font-family="Arial, sans-serif" font-size="353px" font-weight="400"><tspan class="TextPosition" x="1526" y="11085"><tspan fill="rgb(0,0,0)" stroke="none" style="white-space: pre">200</tspan></tspan></tspan></text>
 <text class="SVGTextShape"><tspan class="TextParagraph" font-family="Arial, sans-serif" font-size="353px" font-weight="400"><tspan class="TextPosition" x="1526" y="8999"><tspan fill="rgb(0,0,0)" stroke="none" style="white-space: pre">300</tspan></tspan></tspan></text>
 <text class="SVGTextShape"><tspan class="TextParagraph" font-family="Arial, sans-serif" font-size="353px" font-weight="400"><tspan class="TextPosition" x="1526" y="6912"><tspan fill="rgb(0,0,0)" stroke="none" style="white-space: pre">400</tspan></tspan></tspan></text>
 <text class="SVGTextShape"><tspan class="TextParagraph" font-family="Arial, sans-serif" font-size="353px" font-weight="400"><tspan class="TextPosition" x="1526" y="4826"><tspan fill="rgb(0,0,0)" stroke="none" style="white-space: pre">500</tspan></tspan></tspan></text>
 <text class="SVGTextShape"><tspan class="TextParagraph" font-family="Arial, sans-serif" font-size="353px" font-weight="400"><tspan class="TextPosition" x="1526" y="2739"><tspan fill="rgb(0,0,0)" stroke="none" style="white-space: pre">600</tspan></tspan></tspan></text>
 <text class="SVGTextShape"><tspan class="TextParagraph" font-family="Arial, sans-serif" font-size="353px" font-weight="400"><tspan class="TextPosition" x="1526" y="653"><tspan fill="rgb(0,0,0)" stroke="none" style="white-space: pre">700</tspan></tspan></tspan></text>
 <path fill="none" stroke="rgb(246,178,107)" stroke-width="53" stroke-linejoin="round" d="M 20242,7708 L 21042,7708"/>
 <path fill="none" stroke="rgb(109,158,235)" stroke-width="53" stroke-linejoin="round" d="M 20242,8206 L 21042,8206"/>
 <path fill="none" stroke="rgb(142,124,195)" stroke-width="53" stroke-linejoin="round" d="M 20242,8704 L 21042,8704"/>
 <path fill="none" stroke="rgb(224,102,102)" stroke-width="53" stroke-linejoin="round" d="M 20242,9201 L 21042,9201"/>
 <path fill="none" stroke="rgb(147,196,125)" stroke-width="53" stroke-linejoin="round" d="M 20242,9699 L 21042,9699"/>
 <text class="SVGTextShape"><tspan class="TextParagraph" font-family="Arial, sans-serif" font-size="353px" font-weight="400"><tspan class="TextPosition" x="21142" y="7828"><tspan fill="rgb(26,26,26)" stroke="none" style="white-space: pre">Weight (g) Allan</tspan></tspan></tspan></text>
 <text class="SVGTextShape"><tspan class="TextParagraph" font-family="Arial, sans-serif" font-size="353px" font-weight="400"><tspan class="TextPosition" x="21142" y="8326"><tspan fill="rgb(26,26,26)" stroke="none" style="white-space: pre"> </tspan><tspan fill="rgb(26,26,26)" stroke="none" style="white-space: pre">Wiggles</tspan></tspan></tspan></text>
 <text class="SVGTextShape"><tspan class="TextParagraph" font-family="Arial, sans-serif" font-size="353px" font-weight="400"><tspan class="TextPosition" x="21142" y="8823"><tspan fill="rgb(26,26,26)" stroke="none" style="white-space: pre"> </tspan><tspan fill="rgb(26,26,26)" stroke="none" style="white-space: pre">Manny</tspan></tspan></tspan></text>
 <text class="SVGTextShape"><tspan class="TextParagraph" font-family="Arial, sans-serif" font-size="353px" font-weight="400"><tspan class="TextPosition" x="21142" y="9321"><tspan fill="rgb(26,26,26)" stroke="none" style="white-space: pre"> </tspan><tspan fill="rgb(26,26,26)" stroke="none" style="white-space: pre">George</tspan></tspan></tspan></text>
 <text class="SVGTextShape"><tspan class="TextParagraph" font-family="Arial, sans-serif" font-size="353px" font-weight="400"><tspan class="TextPosition" x="21142" y="9819"><tspan fill="rgb(26,26,26)" stroke="none" style="white-space: pre"> </tspan><tspan fill="rgb(26,26,26)" stroke="none" style="white-space: pre">Curry</tspan></tspan></tspan></text>
 <text class="SVGTextShape"><tspan class="TextParagraph" font-family="Arial, sans-serif" font-size="353px" font-weight="400"><tspan class="TextPosition" x="9753" y="16818"><tspan fill="rgb(0,0,0)" stroke="none" style="white-space: pre">Age (days)</tspan></tspan></tspan></text>
 <text class="SVGTextShape" transform="rotate(-90 862 8970)"><tspan class="TextParagraph" font-family="Arial, sans-serif" font-size="353px" font-weight="400"><tspan class="TextPosition" x="862" y="8970"><tspan fill="rgb(0,0,0)" stroke="none" style="white-space: pre">Weight (g)</tspan></tspan></tspan></text>
</svg>