<?xml version="1.0" encoding="UTF-8"?>
<!DOCTYPE svg PUBLIC "-//W3C//DTD SVG 1.1//EN" "http://www.w3.org/Graphics/SVG/1.1/DTD/svg11.dtd">
<svg width="239mm" height="174mm" viewBox="0 0 23900 17400" version="1.1" xmlns="http://www.w3.org/2000/svg" xmlns:xlink="http://www.w3.org/1999/xlink" stroke-width="28.222" stroke-linejoin="round" xml:space="preserve">
 <path fill="rgb(255,255,255)" stroke="none" d="M 11946,17422 L -13,17422 -13,-13 23904,-13 23904,17422 11946,17422 Z"/>
 <path fill="rgb(255,255,255)" stroke="none" d="M 11256,14466 L 2864,14466 2864,534 19648,534 19648,14466 11256,14466 Z"/>
 <path fill="none" stroke="rgb(183,183,183)" stroke-width="18" stroke-linejoin="round" d="M 19648,14465 L 2864,14465"/>
 <path fill="none" stroke="rgb(183,183,183)" stroke-width="18" stroke-linejoin="round" d="M 19648,12474 L 2864,12474"/>
 <path fill="none" stroke="rgb(183,183,183)" stroke-width="18" stroke-linejoin="round" d="M 19648,10484 L 2864,10484"/>
 <path fill="none" stroke="rgb(183,183,183)" stroke-width="18" stroke-linejoin="round" d="M 19648,8494 L 2864,8494"/>
 <path fill="none" stroke="rgb(183,183,183)" stroke-width="18" stroke-linejoin="round" d="M 19648,6504 L 2864,6504"/>
 <path fill="none" stroke="rgb(183,183,183)" stroke-width="18" stroke-linejoin="round" d="M 19648,4513 L 2864,4513"/>
 <path fill="none" stroke="rgb(183,183,183)" stroke-width="18" stroke-linejoin="round" d="M 19648,2523 L 2864,2523"/>
 <path fill="none" stroke="rgb(183,183,183)" stroke-width="18" stroke-linejoin="round" d="M 19648,532 L 2864,532"/>
 <path fill="none" stroke="rgb(139,139,139)" stroke-width="18" stroke-linejoin="round" d="M 2864,14465 L 19648,14465"/>
 <path fill="none" stroke="rgb(139,139,139)" stroke-width="18" stroke-linejoin="round" d="M 2864,14465 L 2864,532"/>
 <path fill="none" stroke="rgb(246,178,107)" stroke-width="53" stroke-linejoin="round" d="M 2864,13131 L 2942,13071 3020,12852 3099,12753 3177,12613 3256,12375 3334,11837 3413,11758 3491,11439 3569,11379 3648,10941 3726,10882 3805,10663 3883,10683 3962,10663 4040,10464 4118,10384 4197,10265 4275,10125 4354,9827 4432,9588 4511,9389 4589,9051 4667,8812 4746,8653 4824,8395 4903,8176 4981,8076 5060,7937 5138,7638 5217,7638 5295,7399 5373,7360 5452,7200 5530,7041 5609,6942 5687,6822 5766,6763 5844,6384 5922,6285 6001,6185 6079,6325 6158,6106 6236,5946 6315,5867 6393,5847 6471,5588 6550,5807 6628,5668 6707,5469 6785,5409 6864,6146 6942,4951 7021,4712 7099,4832 7177,5170 7256,5150 7334,4872 7413,4832 7491,5329 7570,5907 7648,5986 7726,5409 7805,5051 7883,4513 7962,4115 8040,3896 8119,3857 8197,3976 8275,3996 8354,3737 8432,3638 8511,3936 8589,3976 8668,3797 8746,3976 8825,3876 8903,4195 8981,3956 9060,3717 9138,3817 9217,4195 9295,4215 9374,4653 9452,4892 9530,5210 9609,5329 9687,5409 9766,5708 9844,14465 9923,5568 10001,5847 10079,6146 10158,6225 10236,6444 10315,6703 10393,6404 10472,6345 10550,6285 10629,6285 10707,5946 10785,5946 10864,5767 10942,5648 11021,5827 11099,5867 11178,5927 11256,6205 11334,5966 11413,6524 11491,6563 11570,6962 11648,6444 11727,6185 11805,6444 11883,6683 11961,6862 12039,7220 12118,7380 12196,7439 12275,7479 12353,7519 12432,7658 12510,14465 12588,14465 12667,14465 12745,14465 12824,14465 12902,14465 12981,14465 13059,14465 13137,14465 13216,14465 13294,14465 13373,14465 13451,14465 13530,14465 13608,14465 13686,14465 13765,14465 13843,14465 13922,14465 14000,14465 14079,14465 14157,14465 14236,14465 14314,14465 14392,14465 14471,14465 14549,14465 14628,14465 14706,14465 14785,14465 14863,14465 14941,14465 15020,14465 15098,14465 15177,14465 15255,14465 15334,14465 15412,14465 15490,14465 15569,14465 15647,14465 15726,14465 15804,14465 15883,14465 15961,14465 16040,14465 16118,14465 16196,14465 16275,14465 16353,14465 16432,14465 16510,14465 16589,14465 16667,14465 16745,14465 16824,14465 16902,14465 16981,14465 17059,14465 17138,14465 17216,14465 17294,14465 17373,14465 17451,14465 17530,14465 17608,14465 17687,14465 17765,14465 17844,14465 17922,14465 18000,14465 18079,14465 18157,14465 18236,14465 18314,14465 18393,14465 18471,14465 18549,14465 18628,14465 18706,14465 18785,14465 18863,14465 18942,14465 19020,14465 19098,14465 19177,14465 19255,14465 19334,14465 19412,14465 19491,14465 19569,14465 19648,14465"/>
 <path fill="none" stroke="rgb(109,158,235)" stroke-width="53" stroke-linejoin="round" d="M 2864,13071 L 2942,12932 3020,12733 3099,12673 3177,12534 3256,12315 3334,11877 3413,11897 3491,11638 3569,11558 3648,11001 3726,10961 3805,10603 3883,10543 3962,10464 4040,10285 4118,10205 4197,10046 4275,9867 4354,9488 4432,9070 4511,8812 4589,8534 4667,8435 4746,8096 4824,7718 4903,7181 4981,7220 5060,7061 5138,6265 5217,6305 5295,6026 5373,6046 5452,5807 5530,5588 5609,5548 5687,5210 5766,5130 5844,4772 5922,4712 6001,4573 6079,4633 6158,4712 6236,4553 6315,4255 6393,4354 6471,3996 6550,4215 6628,4215 6707,4016 6785,3896 6864,4115 6942,3757 7021,3618 7099,3558 7177,3518 7256,3558 7334,3458 7413,3299 7491,3558 7570,3319 7648,2921 7726,2881 7805,2841 7883,2861 7962,2881 8040,2901 8119,2682 8197,2841 8275,2841 8354,2702 8432,2384 8511,2244 8589,2384 8668,2344 8746,2543 8825,3021 8903,3140 8981,3080 9060,3279 9138,3239 9217,3876 9295,4095 9374,4533 9452,14465 9530,14465 9609,14465 9687,14465 9766,14465 9844,14465 9923,14465 10001,14465 10079,14465 10158,14465 10236,14465 10315,14465 10393,14465 10472,14465 10550,14465 10629,14465 10707,14465 10785,14465 10864,14465 10942,14465 11021,14465 11099,14465 11178,14465 11256,14465 11334,14465 11413,14465 11491,14465 11570,14465 11648,14465 11727,14465 11805,14465 11883,14465 11961,14465 12039,14465 12118,14465 12196,14465 12275,14465 12353,14465 12432,14465 12510,14465 12588,14465 12667,14465 12745,14465 12824,14465 12902,14465 12981,14465 13059,14465 13137,14465 13216,14465 13294,14465 13373,14465 13451,14465 13530,14465 13608,14465 13686,14465 13765,14465 13843,14465 13922,14465 14000,14465 14079,14465 14157,14465 14236,14465 14314,14465 14392,14465 14471,14465 14549,14465 14628,14465 14706,14465 14785,14465 14863,14465 14941,14465 15020,14465 15098,14465 15177,14465 15255,14465 15334,14465 15412,14465 15490,14465 15569,14465 15647,14465 15726,14465 15804,14465 15883,14465 15961,14465 16040,14465 16118,14465 16196,14465 16275,14465 16353,14465 16432,14465 16510,14465 16589,14465 16667,14465 16745,14465 16824,14465 16902,14465 16981,14465 17059,14465 17138,14465 17216,14465 17294,14465 17373,14465 17451,14465 17530,14465 17608,14465 17687,14465 17765,14465 17844,14465 17922,14465 18000,14465 18079,14465 18157,14465 18236,14465 18314,14465 18393,14465 18471,14465 18549,14465 18628,14465 18706,14465 18785,14465 18863,14465 18942,14465 19020,14465 19098,14465 19177,14465 19255,14465 19334,14465 19412,14465 19491,14465 19569,14465 19648,14465"/>
 <path fill="none" stroke="rgb(142,124,195)" stroke-width="53" stroke-linejoin="round" d="M 2864,14465 L 2942,14465 3020,14465 3099,14465 3177,14465 3256,14465 3334,14465 3413,14465 3491,14465 3569,14465 3648,14465 3726,14465 3805,14465 3883,14465 3962,14465 4040,14465 4118,14465 4197,14465 4275,14465 4354,14465 4432,14465 4511,14465 4589,14465 4667,14465 4746,14465 4824,14465 4903,14465 4981,14465 5060,14465 5138,14465 5217,14465 5295,14465 5373,14465 5452,14465 5530,14465 5609,14465 5687,14465 5766,14465 5844,14465 5922,14465 6001,14465 6079,14465 6158,14465 6236,14465 6315,14465 6393,14465 6471,14465 6550,14465 6628,14465 6707,14465 6785,14465 6864,14465 6942,14465 7021,14465 7099,14465 7177,14465 7256,14465 7334,14465 7413,14465 7491,14465 7570,14465 7648,14465 7726,14465 7805,14465 7883,14465 7962,14465 8040,14465 8119,14465 8197,14465 8275,14465 8354,14465 8432,14465 8511,14465 8589,14465 8668,14465 8746,14465 8825,14465 8903,14465 8981,14465 9060,14465 9138,14465 9217,14465 9295,14465 9374,2841 9452,14465 9530,14465 9609,2861 9687,14465 9766,14465 9844,3916 9923,14465 10001,14465 10079,14465 10158,14465 10236,3319 10315,14465 10393,14465 10472,3239 10550,3239 10629,3120 10707,3040 10785,3100 10864,3060 10942,2841 11021,3140 11099,2921 11178,3439 11256,3558 11334,3478 11413,3399 11491,3239 11570,3419 11648,2861 11727,2483 11805,2404 11883,2344 11961,2642 12039,2443 12118,2543 12196,2702 12275,2702 12353,2622 12432,2443 12510,2583 12588,2523 12667,3021 12745,3160 12824,2841 12902,2603 12981,2742 13059,2682 13137,2543 13216,2782 13294,2722 13373,2901 13451,2642 13530,2702 13608,2543 13686,2404 13765,2901 13843,2742 13922,2583 14000,2304 14079,2105 14157,2185 14236,2025 14314,2244 14392,2005 14471,2025 14549,2085 14628,2165 14706,2244 14785,2423 14863,2344 14941,2762 15020,2802 15098,2782 15177,2961 15255,3080 15334,3140 15412,3399 15490,3737 15569,14465 15647,4454 15726,5031 15804,5429 15883,5907 15961,6046 16040,6126 16118,6364 16196,6623 16275,6106 16353,6902 16432,6822 16510,6882 16589,6603 16667,6862 16745,7200 16824,7001 16902,6364 16981,7061 17059,6942 17138,6902 17216,14465 17294,14465 17373,14465 17451,14465 17530,14465 17608,14465 17687,14465 17765,14465 17844,14465 17922,14465 18000,14465 18079,14465 18157,14465 18236,14465 18314,14465 18393,14465 18471,14465 18549,14465 18628,14465 18706,14465 18785,14465 18863,14465 18942,14465 19020,14465 19098,14465 19177,14465 19255,14465 19334,14465 19412,14465 19491,14465 19569,14465 19648,14465"/>
 <path fill="none" stroke="rgb(224,102,102)" stroke-width="53" stroke-linejoin="round" d="M 2864,14465 L 2942,14465 3020,14465 3099,14465 3177,14465 3256,14465 3334,14465 3413,14465 3491,14465 3569,14465 3648,14465 3726,14465 3805,14465 3883,14465 3962,14465 4040,14465 4118,14465 4197,14465 4275,14465 4354,14465 4432,14465 4511,14465 4589,14465 4667,14465 4746,14465 4824,14465 4903,14465 4981,14465 5060,14465 5138,14465 5217,14465 5295,14465 5373,14465 5452,14465 5530,14465 5609,14465 5687,14465 5766,14465 5844,14465 5922,14465 6001,14465 6079,14465 6158,14465 6236,14465 6315,14465 6393,14465 6471,14465 6550,14465 6628,14465 6707,14465 6785,14465 6864,14465 6942,14465 7021,14465 7099,14465 7177,14465 7256,14465 7334,14465 7413,14465 7491,14465 7570,14465 7648,14465 7726,14465 7805,14465 7883,14465 7962,14465 8040,14465 8119,14465 8197,14465 8275,14465 8354,14465 8432,14465 8511,14465 8589,14465 8668,14465 8746,14465 8825,14465 8903,14465 8981,14465 9060,14465 9138,14465 9217,14465 9295,14465 9374,14465 9452,14465 9530,10882 9609,10603 9687,10384 9766,10424 9844,14465 9923,10105 10001,10066 10079,9827 10158,9668 10236,9508 10315,9409 10393,9269 10472,9150 10550,9070 10629,8792 10707,8673 10785,8514 10864,8415 10942,8355 11021,8415 11099,8076 11178,8036 11256,8116 11334,7917 11413,7658 11491,7439 11570,7678 11648,7340 11727,7200 11805,7041 11883,6981 11961,6723 12039,6862 12118,6544 12196,6643 12275,6623 12353,6524 12432,6563 12510,6603 12588,6563 12667,6663 12745,6444 12824,6245 12902,6305 12981,6245 13059,6464 13137,6404 13216,6683 13294,6305 13373,6484 13451,6205 13530,6106 13608,6165 13686,6345 13765,6444 13843,6404 13922,6305 14000,6862 14079,6703 14157,6703 14236,6524 14314,6544 14392,6464 14471,6345 14549,6504 14628,6524 14706,6663 14785,6842 14863,6723 14941,6822 15020,6822 15098,6842 15177,6981 15255,7061 15334,6962 15412,7061 15490,6962 15569,7001 15647,6942 15726,6942 15804,6962 15883,7001 15961,6962 16040,7101 16118,7161 16196,6763 16275,6305 16353,6842 16432,6763 16510,6942 16589,7061 16667,7041 16745,6882 16824,6802 16902,6942 16981,6902 17059,6882 17138,6882 17216,7081 17294,7340 17373,9031 17451,8017 17530,7997 17608,7917 17687,8056 17765,8375 17844,9230 17922,9488 18000,10086 18079,14465 18157,14465 18236,14465 18314,14465 18393,14465 18471,14465 18549,14465 18628,14465 18706,14465 18785,14465 18863,14465 18942,14465 19020,14465 19098,14465 19177,14465 19255,14465 19334,14465 19412,14465 19491,14465 19569,14465 19648,14465"/>
 <path fill="none" stroke="rgb(147,196,125)" stroke-width="53" stroke-linejoin="round" d="M 2864,14465 L 2942,14465 3020,14465 3099,14465 3177,14465 3256,14465 3334,14465 3413,14465 3491,14465 3569,14465 3648,14465 3726,14465 3805,14465 3883,14465 3962,14465 4040,14465 4118,14465 4197,14465 4275,14465 4354,14465 4432,14465 4511,14465 4589,14465 4667,14465 4746,14465 4824,14465 4903,14465 4981,14465 5060,14465 5138,14465 5217,14465 5295,14465 5373,14465 5452,14465 5530,14465 5609,14465 5687,14465 5766,14465 5844,14465 5922,14465 6001,14465 6079,14465 6158,14465 6236,14465 6315,14465 6393,14465 6471,14465 6550,14465 6628,14465 6707,14465 6785,14465 6864,14465 6942,14465 7021,14465 7099,14465 7177,14465 7256,14465 7334,14465 7413,14465 7491,14465 7570,14465 7648,14465 7726,14465 7805,14465 7883,14465 7962,14465 8040,14465 8119,14465 8197,14465 8275,14465 8354,14465 8432,14465 8511,14465 8589,14465 8668,14465 8746,14465 8825,14465 8903,14465 8981,14465 9060,14465 9138,14465 9217,14465 9295,14465 9374,14465 9452,14465 9530,10523 9609,10165 9687,9767 9766,9528 9844,14465 9923,9070 10001,9031 10079,8653 10158,8315 10236,8196 10315,8017 10393,7738 10472,7599 10550,7300 10629,6942 10707,6882 10785,6822 10864,6563 10942,6345 11021,6245 11099,5887 11178,5728 11256,5787 11334,5767 11413,5668 11491,5210 11570,5409 11648,4752 11727,4195 11805,4235 11883,3976 11961,3857 12039,3857 12118,3797 12196,3936 12275,3857 12353,3657 12432,3837 12510,4016 12588,3976 12667,4573 12745,4394 12824,4036 12902,4195 12981,4075 13059,4175 13137,4056 13216,4354 13294,4016 13373,4334 13451,4016 13530,4095 13608,3976 13686,3996 13765,4454 13843,4095 13922,3797 14000,3618 14079,3697 14157,3717 14236,3598 14314,3598 14392,3518 14471,3598 14549,3618 14628,3638 14706,3677 14785,3618 14863,3538 14941,3717 15020,3817 15098,3757 15177,3757 15255,3737 15334,3618 15412,3777 15490,3817 15569,3916 15647,3817 15726,4175 15804,4175 15883,4095 15961,4255 16040,4036 16118,4314 16196,4255 16275,3916 16353,4275 16432,4215 16510,4275 16589,4255 16667,4215 16745,4215 16824,4215 16902,4354 16981,4354 17059,4215 17138,4115 17216,4513 17294,4832 17373,5071 17451,5369 17530,6185 17608,6086 17687,6205 17765,5927 17844,6504 17922,7041 18000,7200 18079,7061 18157,7499 18236,7399 18314,7897 18393,8395 18471,14465 18549,14465 18628,14465 18706,14465 18785,14465 18863,14465 18942,14465 19020,14465 19098,14465 19177,14465 19255,14465 19334,14465 19412,14465 19491,14465 19569,14465 19648,14465"/>
 <text class="SVGTextShape" transform="rotate(-44.9 1750 15988)"><tspan class="TextParagraph" font-family="Arial, sans-serif" font-size="353px" font-weight="400"><tspan class="TextPosition" x="1750" y="15988"><tspan fill="rgb(0,0,0)" stroke="none" style="white-space: pre">2020-09-22</tspan></tspan></tspan></text>
 <text class="SVGTextShape" transform="rotate(-44.9 2377 15988)"><tspan class="TextParagraph" font-family="Arial, sans-serif" font-size="353px" font-weight="400"><tspan class="TextPosition" x="2377" y="15988"><tspan fill="rgb(0,0,0)" stroke="none" style="white-space: pre">2020-10-11</tspan></tspan></tspan></text>
 <text class="SVGTextShape" transform="rotate(-44.9 3004 15988)"><tspan class="TextParagraph" font-family="Arial, sans-serif" font-size="353px" font-weight="400"><tspan class="TextPosition" x="3004" y="15988"><tspan fill="rgb(0,0,0)" stroke="none" style="white-space: pre">2020-10-27</tspan></tspan></tspan></text>
 <text class="SVGTextShape" transform="rotate(-44.9 3632 15988)"><tspan class="TextParagraph" font-family="Arial, sans-serif" font-size="353px" font-weight="400"><tspan class="TextPosition" x="3632" y="15988"><tspan fill="rgb(0,0,0)" stroke="none" style="white-space: pre">2020-11-26</tspan></tspan></tspan></text>
 <text class="SVGTextShape" transform="rotate(-44.9 4259 15988)"><tspan class="TextParagraph" font-family="Arial, sans-serif" font-size="353px" font-weight="400"><tspan class="TextPosition" x="4259" y="15988"><tspan fill="rgb(0,0,0)" stroke="none" style="white-space: pre">2021-01-26</tspan></tspan></tspan></text>
 <text class="SVGTextShape" transform="rotate(-44.9 4887 15988)"><tspan class="TextParagraph" font-family="Arial, sans-serif" font-size="353px" font-weight="400"><tspan class="TextPosition" x="4887" y="15988"><tspan fill="rgb(0,0,0)" stroke="none" style="white-space: pre">2021-03-24</tspan></tspan></tspan></text>
 <text class="SVGTextShape" transform="rotate(-44.9 5514 15988)"><tspan class="TextParagraph" font-family="Arial, sans-serif" font-size="353px" font-weight="400"><tspan class="TextPosition" x="5514" y="15988"><tspan fill="rgb(0,0,0)" stroke="none" style="white-space: pre">2021-06-21</tspan></tspan></tspan></text>
 <text class="SVGTextShape" transform="rotate(-44.9 6142 15988)"><tspan class="TextParagraph" font-family="Arial, sans-serif" font-size="353px" font-weight="400"><tspan class="TextPosition" x="6142" y="15988"><tspan fill="rgb(0,0,0)" stroke="none" style="white-space: pre">2021-12-13</tspan></tspan></tspan></text>
 <text class="SVGTextShape" transform="rotate(-44.9 6769 15988)"><tspan class="TextParagraph" font-family="Arial, sans-serif" font-size="353px" font-weight="400"><tspan class="TextPosition" x="6769" y="15988"><tspan fill="rgb(0,0,0)" stroke="none" style="white-space: pre">2022-03-23</tspan></tspan></tspan></text>
 <text class="SVGTextShape" transform="rotate(-44.9 7397 15988)"><tspan class="TextParagraph" font-family="Arial, sans-serif" font-size="353px" font-weight="400"><tspan class="TextPosition" x="7397" y="15988"><tspan fill="rgb(0,0,0)" stroke="none" style="white-space: pre">2022-08-08</tspan></tspan></tspan></text>
 <text class="SVGTextShape" transform="rotate(-44.9 8024 15988)"><tspan class="TextParagraph" font-family="Arial, sans-serif" font-size="353px" font-weight="400"><tspan class="TextPosition" x="8024" y="15988"><tspan fill="rgb(0,0,0)" stroke="none" style="white-space: pre">2022-11-21</tspan></tspan></tspan></text>
 <text class="SVGTextShape" transform="rotate(-44.9 8652 15988)"><tspan class="TextParagraph" font-family="Arial, sans-serif" font-size="353px" font-weight="400"><tspan class="TextPosition" x="8652" y="15988"><tspan fill="rgb(0,0,0)" stroke="none" style="white-space: pre">2023-01-22</tspan></tspan></tspan></text>
 <text class="SVGTextShape" transform="rotate(-44.9 9279 15988)"><tspan class="TextParagraph" font-family="Arial, sans-serif" font-size="353px" font-weight="400"><tspan class="TextPosition" x="9279" y="15988"><tspan fill="rgb(0,0,0)" stroke="none" style="white-space: pre">2023-02-23</tspan></tspan></tspan></text>
 <text class="SVGTextShape" transform="rotate(-44.9 9907 15988)"><tspan class="TextParagraph" font-family="Arial, sans-serif" font-size="353px" font-weight="400"><tspan class="TextPosition" x="9907" y="15988"><tspan fill="rgb(0,0,0)" stroke="none" style="white-space: pre">2023-04-03</tspan></tspan></tspan></text>
 <text class="SVGTextShape" transform="rotate(-44.9 10534 15988)"><tspan class="TextParagraph" font-family="Arial, sans-serif" font-size="353px" font-weight="400"><tspan class="TextPosition" x="10534" y="15988"><tspan fill="rgb(0,0,0)" stroke="none" style="white-space: pre">2023-06-11</tspan></tspan></tspan></text>
 <text class="SVGTextShape" transform="rotate(-44.9 11162 15988)"><tspan class="TextParagraph" font-family="Arial, sans-serif" font-size="353px" font-weight="400"><tspan class="TextPosition" x="11162" y="15988"><tspan fill="rgb(0,0,0)" stroke="none" style="white-space: pre">2023-09-08</tspan></tspan></tspan></text>
 <text class="SVGTextShape" transform="rotate(-44.9 11789 15988)"><tspan class="TextParagraph" font-family="Arial, sans-serif" font-size="353px" font-weight="400"><tspan class="TextPosition" x="11789" y="15988"><tspan fill="rgb(0,0,0)" stroke="none" style="white-space: pre">2023-12-05</tspan></tspan></tspan></text>
 <text class="SVGTextShape" transform="rotate(-44.9 12417 15988)"><tspan class="TextParagraph" font-family="Arial, sans-serif" font-size="353px" font-weight="400"><tspan class="TextPosition" x="12417" y="15988"><tspan fill="rgb(0,0,0)" stroke="none" style="white-space: pre">2024-01-23</tspan></tspan></tspan></text>
 <text class="SVGTextShape" transform="rotate(-44.9 13044 15988)"><tspan class="TextParagraph" font-family="Arial, sans-serif" font-size="353px" font-weight="400"><tspan class="TextPosition" x="13044" y="15988"><tspan fill="rgb(0,0,0)" stroke="none" style="white-space: pre">2024-04-21</tspan></tspan></tspan></text>
 <text class="SVGTextShape" transform="rotate(-44.9 13672 15988)"><tspan class="TextParagraph" font-family="Arial, sans-serif" font-size="353px" font-weight="400"><tspan class="TextPosition" x="13672" y="15988"><tspan fill="rgb(0,0,0)" stroke="none" style="white-space: pre">2024-06-23</tspan></tspan></tspan></text>
 <text class="SVGTextShape" transform="rotate(-44.9 14299 15988)"><tspan class="TextParagraph" font-family="Arial, sans-serif" font-size="353px" font-weight="400"><tspan class="TextPosition" x="14299" y="15988"><tspan fill="rgb(0,0,0)" stroke="none" style="white-space: pre">2024-08-16</tspan></tspan></tspan></text>
 <text class="SVGTextShape" transform="rotate(-44.9 14927 15988)"><tspan class="TextParagraph" font-family="Arial, sans-serif" font-size="353px" font-weight="400"><tspan class="TextPosition" x="14927" y="15988"><tspan fill="rgb(0,0,0)" stroke="none" style="white-space: pre">2024-11-01</tspan></tspan></tspan></text>
 <text class="SVGTextShape" transform="rotate(-44.9 15554 15988)"><tspan class="TextParagraph" font-family="Arial, sans-serif" font-size="353px" font-weight="400"><tspan class="TextPosition" x="15554" y="15988"><tspan fill="rgb(0,0,0)" stroke="none" style="white-space: pre">2025-01-07</tspan></tspan></tspan></text>
 <text class="SVGTextShape" transform="rotate(-44.9 16181 15988)"><tspan class="TextParagraph" font-family="Arial, sans-serif" font-size="353px" font-weight="400"><tspan class="TextPosition" x="16181" y="15988"><tspan fill="rgb(0,0,0)" stroke="none" style="white-space: pre">2025-04-22</tspan></tspan></tspan></text>
 <text class="SVGTextShape" transform="rotate(-44.9 16809 15988)"><tspan class="TextParagraph" font-family="Arial, sans-serif" font-size="353px" font-weight="400"><tspan class="TextPosition" x="16809" y="15988"><tspan fill="rgb(0,0,0)" stroke="none" style="white-space: pre">2025-09-04</tspan></tspan></tspan></text>
 <text class="SVGTextShape"><tspan class="TextParagraph" font-family="Arial, sans-serif" font-size="353px" font-weight="400"><tspan class="TextPosition" x="2579" y="14586"><tspan fill="rgb(0,0,0)" stroke="none" style="white-space: pre">0</tspan></tspan></tspan></text>
 <text class="SVGTextShape"><tspan class="TextParagraph" font-family="Arial, sans-serif" font-size="353px" font-weight="400"><tspan class="TextPosition" x="2208" y="12595"><tspan fill="rgb(0,0,0)" stroke="none" style="white-space: pre">100</tspan></tspan></tspan></text>
 <text class="SVGTextShape"><tspan class="TextParagraph" font-family="Arial, sans-serif" font-size="353px" font-weight="400"><tspan class="TextPosition" x="2208" y="10605"><tspan fill="rgb(0,0,0)" stroke="none" style="white-space: pre">200</tspan></tspan></tspan></text>
 <text class="SVGTextShape"><tspan class="TextParagraph" font-family="Arial, sans-serif" font-size="353px" font-weight="400"><tspan class="TextPosition" x="2208" y="8614"><tspan fill="rgb(0,0,0)" stroke="none" style="white-space: pre">300</tspan></tspan></tspan></text>
 <text class="SVGTextShape"><tspan class="TextParagraph" font-family="Arial, sans-serif" font-size="353px" font-weight="400"><tspan class="TextPosition" x="2208" y="6624"><tspan fill="rgb(0,0,0)" stroke="none" style="white-space: pre">400</tspan></tspan></tspan></text>
 <text class="SVGTextShape"><tspan class="TextParagraph" font-family="Arial, sans-serif" font-size="353px" font-weight="400"><tspan class="TextPosition" x="2208" y="4633"><tspan fill="rgb(0,0,0)" stroke="none" style="white-space: pre">500</tspan></tspan></tspan></text>
 <text class="SVGTextShape"><tspan class="TextParagraph" font-family="Arial, sans-serif" font-size="353px" font-weight="400"><tspan class="TextPosition" x="2208" y="2643"><tspan fill="rgb(0,0,0)" stroke="none" style="white-space: pre">600</tspan></tspan></tspan></text>
 <text class="SVGTextShape"><tspan class="TextParagraph" font-family="Arial, sans-serif" font-size="353px" font-weight="400"><tspan class="TextPosition" x="2208" y="652"><tspan fill="rgb(0,0,0)" stroke="none" style="white-space: pre">700</tspan></tspan></tspan></text>
 <path fill="none" stroke="rgb(246,178,107)" stroke-width="53" stroke-linejoin="round" d="M 20242,7708 L 21042,7708"/>
 <path fill="none" stroke="rgb(109,158,235)" stroke-width="53" stroke-linejoin="round" d="M 20242,8206 L 21042,8206"/>
 <path fill="none" stroke="rgb(142,124,195)" stroke-width="53" stroke-linejoin="round" d="M 20242,8704 L 21042,8704"/>
 <path fill="none" stroke="rgb(224,102,102)" stroke-width="53" stroke-linejoin="round" d="M 20242,9201 L 21042,9201"/>
 <path fill="none" stroke="rgb(147,196,125)" stroke-width="53" stroke-linejoin="round" d="M 20242,9699 L 21042,9699"/>
 <text class="SVGTextShape"><tspan class="TextParagraph" font-family="Arial, sans-serif" font-size="353px" font-weight="400"><tspan class="TextPosition" x="21142" y="7828"><tspan fill="rgb(26,26,26)" stroke="none" style="white-space: pre">Weight (g) Allan</tspan></tspan></tspan></text>
 <text class="SVGTextShape"><tspan class="TextParagraph" font-family="Arial, sans-serif" font-size="353px" font-weight="400"><tspan class="TextPosition" x="21142" y="8326"><tspan fill="rgb(26,26,26)" stroke="none" style="white-space: pre"> </tspan><tspan fill="rgb(26,26,26)" stroke="none" style="white-space: pre">Wiggles</tspan></tspan></tspan></text>
 <text class="SVGTextShape"><tspan class="TextParagraph" font-family="Arial, sans-serif" font-size="353px" font-weight="400"><tspan class="TextPosition" x="21142" y="8823"><tspan fill="rgb(26,26,26)" stroke="none" style="white-space: pre"> </tspan><tspan fill="rgb(26,26,26)" stroke="none" style="white-space: pre">Manny</tspan></tspan></tspan></text>
 <text class="SVGTextShape"><tspan class="TextParagraph" font-family="Arial, sans-serif" font-size="353px" font-weight="400"><tspan class="TextPosition" x="21142" y="9321"><tspan fill="rgb(26,26,26)" stroke="none" style="white-space: pre"> </tspan><tspan fill="rgb(26,26,26)" stroke="none" style="white-space: pre">George</tspan></tspan></tspan></text>
 <text class="SVGTextShape"><tspan class="TextParagraph" font-family="Arial, sans-serif" font-size="353px" font-weight="400"><tspan class="TextPosition" x="21142" y="9819"><tspan fill="rgb(26,26,26)" stroke="none" style="white-space: pre"> </tspan><tspan fill="rgb(26,26,26)" stroke="none" style="white-space: pre">Curry</tspan></tspan></tspan></text>
 <text class="SVGTextShape"><tspan class="TextParagraph" font-family="Arial, sans-serif" font-size="353px" font-weight="400"><tspan class="TextPosition" x="10230" y="16818"><tspan fill="rgb(0,0,0)" stroke="none" style="white-space: pre">Date</tspan></tspan></tspan></text>
 <text class="SVGTextShape" transform="rotate(-90 862 8970)"><tspan class="TextParagraph" font-family="Arial, sans-serif" font-size="353px" font-weight="400"><tspan class="TextPosition" x="862" y="8970"><tspan fill="rgb(0,0,0)" stroke="none" style="white-space: pre">Weight (g)</tspan></tspan></tspan></text>
</svg>